<svg width="15" height="15" viewBox="0 0 15 15" fill="none" xmlns="http://www.w3.org/2000/svg">
<path d="M5.38126 5.36874C5.56291 5.44491 5.41642 4.99374 5.33439 4.87655C5.14103 4.60702 5.2758 3.61092 6.06095 2.86092C6.84611 2.11092 7.53165 1.52499 6.75822 0.18319C6.57072 -0.144935 6.43009 0.0249864 6.41251 0.247643C6.38908 0.470299 6.41251 1.09139 5.87345 1.54842C5.33439 2.00546 4.50236 2.76131 4.32658 3.62264C4.1508 4.48397 5.08244 5.23983 5.38126 5.36874Z" fill="black"/>
<path d="M7.98294 5.36874C8.16458 5.44491 8.0181 4.99374 7.93607 4.87655C7.74271 4.60702 7.87748 3.61092 8.66263 2.86092C9.44779 2.11092 10.1333 1.52499 9.3599 0.18319C9.1724 -0.144935 9.03177 0.0249864 9.01419 0.247643C8.99076 0.470299 9.01419 1.09139 8.47513 1.54842C7.93607 2.00546 7.10404 2.76131 6.92826 3.62264C6.75248 4.48397 7.67826 5.23983 7.98294 5.36874Z" fill="black"/>
<path d="M13.7383 7.13232H12.707C12.707 6.66357 12.707 6.18896 12.707 6.18896H7.45703H6.55469H1.30469C1.30469 6.18896 1.30469 6.66357 1.30469 7.13232C1.30469 10.7886 4.4043 12.8569 5.30078 12.8569C5.69922 12.8569 6.61328 12.8569 6.61328 12.8569H7.39258C7.39258 12.8569 8.30664 12.8569 8.70508 12.8569C9.14453 12.8569 10.1172 12.3589 10.9844 11.4272C13.3691 11.4038 14.8281 9.58154 14.8281 8.59131C14.8281 8.08154 14.8281 7.13232 13.7383 7.13232ZM11.7168 10.4839C12.1621 9.79248 12.5137 8.95459 12.6484 7.98193H13.7383C13.8613 7.98193 13.9023 7.99951 13.9023 7.99951C13.9141 8.01709 13.9727 8.11084 13.9727 8.58545C13.9727 9.01318 13.1816 10.1733 11.7168 10.4839Z" fill="black"/>
<path d="M12.759 13.6187C12.3606 13.6187 7.40357 13.6187 7.40357 13.6187H6.6067C6.6067 13.6187 1.64966 13.6187 1.25123 13.6187C0.85279 13.6187 0.94068 13.9292 1.42701 14.1343C1.91334 14.3394 3.72974 14.8433 6.6067 14.8433H7.40357C10.2805 14.8433 12.0911 14.3394 12.5833 14.1343C13.0637 13.9292 13.1575 13.6187 12.759 13.6187Z" fill="black"/>
</svg>
