<svg width="40" height="41" viewBox="0 0 40 41" fill="none" xmlns="http://www.w3.org/2000/svg">
<g clip-path="url(#clip0_86_88633)">
<path d="M22.106 26.5221L21.8594 29.757L3.95494 33.4649C2.09229 30.7527 -2.24287 24.6784 2.56471 19.9183C6.26424 16.2548 11.6427 16.6442 11.6427 16.6442C11.6427 16.6442 20.9281 10.8626 22.106 26.5221Z" fill="#FAC515"/>
<path d="M8.1083 29.7603L7.85439 36.3493L3.95502 33.4649C2.09228 30.7528 -2.24287 24.6785 2.5647 19.9184C6.26424 16.2549 11.6427 16.6443 11.6427 16.6443C3.25291 19.8501 5.51533 27.3012 8.1083 29.7603Z" fill="#EAB14D"/>
<path d="M6.54741 37.0038C5.18585 37.5241 3.66038 36.8421 3.14015 35.4805C3.06858 35.2931 3.01968 35.1026 2.99233 34.9121C2.77093 33.3735 4.94468 32.8091 5.49944 34.2612L21.2772 28.2324C20.7223 26.7804 22.7185 25.7514 23.5795 27.0456C23.6862 27.2059 23.7768 27.3804 23.8484 27.5678C24.3687 28.9294 23.6867 30.4548 22.3251 30.9751" fill="#EAAC9D"/>
<path d="M20.3228 25.7358L21.8594 29.757C23.0727 32.9322 21.4824 36.4904 18.3067 37.7038L14.0285 39.3385C10.8533 40.5518 7.29494 38.9609 6.08174 35.7858L4.58838 31.8776C5.73666 31.2493 6.94135 30.537 8.10838 29.7602C10.9381 27.878 13.5496 25.6136 14.6144 23.2317C14.6144 23.2317 17.0966 26.4489 20.3228 25.7358Z" fill="#FFCBBE"/>
<path d="M17.806 37.8951L14.0285 39.3385C10.8533 40.5518 7.29494 38.961 6.08174 35.7858L4.58838 31.8776C5.73666 31.2493 6.94135 30.5371 8.10838 29.7603L9.85924 34.3424C11.0725 37.5175 14.6303 39.1085 17.806 37.8951Z" fill="#EAAC9D"/>
<path d="M12.8599 32.6468C12.6674 32.6468 12.4858 32.5297 12.413 32.339C12.3187 32.0922 12.4423 31.8157 12.6891 31.7215L14.2255 31.1344C14.4724 31.0401 14.7488 31.1637 14.8431 31.4105C14.9374 31.6573 14.8138 31.9339 14.567 32.0281L13.0306 32.6151C12.9744 32.6366 12.9167 32.6468 12.8599 32.6468Z" fill="#EAAC9D"/>
<path d="M11.6758 34.5591C12.2241 35.9943 13.8321 36.7132 15.2673 36.1647C16.7024 35.6163 17.4213 34.0084 16.8729 32.5732L11.6758 34.5591Z" fill="#454045"/>
<path d="M8.00371 33.5474C7.93848 33.5474 7.87215 33.534 7.80871 33.5056C7.56746 33.3978 7.45934 33.1148 7.56715 32.8737C7.82707 32.2923 8.2977 31.847 8.89254 31.6197C9.48739 31.3925 10.135 31.4104 10.7164 31.6703C10.9575 31.7781 11.0657 32.0611 10.9579 32.3022C10.85 32.5435 10.5669 32.6514 10.3258 32.5437C9.97793 32.3882 9.5902 32.3774 9.23403 32.5135C8.87793 32.6496 8.59622 32.9162 8.44059 33.2641C8.36122 33.4419 8.18668 33.5474 8.00371 33.5474Z" fill="#DF9380"/>
<path d="M16.0982 30.4544C16.0329 30.4544 15.9666 30.441 15.9032 30.4126C15.6619 30.3048 15.5538 30.0218 15.6616 29.7806C15.9216 29.1993 16.3922 28.754 16.987 28.5267C17.5819 28.2994 18.2297 28.3174 18.8109 28.5773C19.0521 28.6851 19.1602 28.9681 19.0524 29.2092C18.9445 29.4505 18.6615 29.5585 18.4204 29.4507C18.0723 29.295 17.6845 29.2844 17.3285 29.4204C16.9724 29.5565 16.6907 29.8231 16.5351 30.171C16.4556 30.3489 16.2811 30.4544 16.0982 30.4544Z" fill="#DF9380"/>
<path d="M18.6711 17.4023C17.2971 16.9161 16.5773 15.408 17.0635 14.034C17.1304 13.8448 17.2167 13.6681 17.3193 13.5052C18.1478 12.19 20.169 13.169 19.6504 14.6344L35.5733 20.2684C36.0918 18.803 38.279 19.3131 38.0959 20.8567C38.0732 21.0479 38.0292 21.2395 37.9622 21.4287C37.4761 22.8027 35.968 23.5225 34.594 23.0363" fill="#B17A4A"/>
<path d="M22.4381 6.75586L19.1061 16.1729C17.9723 19.3773 19.6512 22.895 22.8556 24.0288L27.1731 25.5565C30.3781 26.6905 33.8952 25.0114 35.0291 21.807L38.3611 12.3899" fill="#C38959"/>
<path d="M26.51 25.3219L22.8554 24.0287C19.6509 22.8949 17.972 19.3773 19.1058 16.1728L22.438 6.75562L26.0926 8.04874L22.7605 17.4659C21.6266 20.6704 23.3055 24.188 26.51 25.3219Z" fill="#B17A4A"/>
<path d="M28.1629 18.8378C28.1099 18.8378 28.0561 18.829 28.0034 18.8103L26.4528 18.2618C26.2037 18.1736 26.0731 17.9003 26.1613 17.6512C26.2495 17.4021 26.5229 17.2717 26.7719 17.3598L28.3225 17.9084C28.5716 17.9965 28.7021 18.2699 28.6139 18.5189C28.5444 18.7152 28.3599 18.8378 28.1629 18.8378Z" fill="#B17A4A"/>
<path d="M38.8512 5.8382L26.1773 1.35382C25.2801 1.03632 24.2955 1.50632 23.978 2.40359L22.438 6.75585L22.0062 7.97632L20.7107 11.6376C21.6206 11.9596 22.6192 11.483 22.9412 10.573L23.6538 8.55929L36.2816 13.0274L35.5691 15.0412C35.2471 15.9511 35.7237 16.9497 36.6337 17.2717L37.9291 13.6104L38.3609 12.3899L39.9009 8.03765C40.2183 7.14038 39.7484 6.1557 38.8512 5.8382Z" fill="#544F57"/>
<path d="M29.9152 2.67642C29.0178 2.35884 28.0334 2.82868 27.7159 3.72618L25.7441 9.29892L23.6538 8.55931L22.9414 10.5727C22.7805 11.0274 22.45 11.3744 22.0468 11.5673C21.6433 11.7594 21.1656 11.7981 20.7109 11.6373L23.9781 2.4036C24.2957 1.50618 25.2801 1.03634 26.1775 1.35384L29.9152 2.67642Z" fill="#454045"/>
<path d="M24.1611 18.864C23.6486 20.3124 24.4072 21.902 25.8557 22.4144C27.304 22.9269 28.8937 22.1682 29.4061 20.7198L24.1611 18.864Z" fill="#454045"/>
<path d="M24.8715 16.7269C24.6929 16.7269 24.5215 16.6264 24.4394 16.4545C24.2752 16.1105 23.9869 15.8509 23.6275 15.7238C23.2682 15.5967 22.8808 15.6171 22.5368 15.7813C22.2983 15.895 22.0128 15.794 21.899 15.5556C21.7853 15.3172 21.8863 15.0317 22.1247 14.9178C22.6993 14.6435 23.3464 14.6095 23.9467 14.8219C24.5469 15.0343 25.0286 15.4677 25.3029 16.0424C25.4166 16.2808 25.3156 16.5663 25.0772 16.6802C25.0107 16.7119 24.9405 16.7269 24.8715 16.7269Z" fill="#985E33"/>
<path d="M33.0404 19.6172C32.8618 19.6172 32.6904 19.5168 32.6084 19.3448C32.4441 19.0008 32.1559 18.7413 31.7965 18.6142C31.4371 18.4871 31.0497 18.5074 30.7058 18.6716C30.4673 18.7854 30.1818 18.6844 30.068 18.446C29.9542 18.2076 30.0552 17.922 30.2936 17.8082C30.8684 17.534 31.5153 17.4998 32.1156 17.7122C32.7159 17.9247 33.1975 18.3581 33.4718 18.9327C33.5856 19.1711 33.4845 19.4567 33.2462 19.5705C33.1797 19.6022 33.1095 19.6172 33.0404 19.6172Z" fill="#985E33"/>
<path d="M16.7782 8.0407C16.6139 8.0407 16.4505 7.97351 16.3324 7.84156L14.7408 6.06374C14.5206 5.81765 14.5414 5.43968 14.7875 5.21937C15.0336 4.99898 15.4117 5.02007 15.6318 5.26601L17.2234 7.04382C17.4436 7.28992 17.4228 7.66788 17.1768 7.8882C17.0627 7.99046 16.9201 8.0407 16.7782 8.0407Z" fill="#2970FF"/>
<path d="M18.5529 6.98666C18.3002 6.98666 18.0654 6.82517 17.9839 6.57166L17.4303 4.85119C17.3291 4.53681 17.502 4.19994 17.8164 4.09877C18.13 3.99752 18.4675 4.17041 18.5687 4.48486L19.1223 6.20533C19.2235 6.5197 19.0506 6.85658 18.7362 6.95775C18.6754 6.97736 18.6137 6.98666 18.5529 6.98666Z" fill="#2970FF"/>
<path d="M15.5341 9.68921C15.4523 9.68921 15.3691 9.67234 15.2896 9.63671L13.6407 8.89695C13.3394 8.76179 13.2047 8.40788 13.3399 8.10655C13.475 7.80523 13.8289 7.67054 14.1303 7.8057L15.7793 8.54546C16.0805 8.68062 16.2152 9.03452 16.08 9.33585C15.9805 9.55765 15.7624 9.68921 15.5341 9.68921Z" fill="#2970FF"/>
<path d="M26.9872 37.8771C26.8723 37.8771 26.7561 37.8441 26.6536 37.775L24.6747 36.4416C24.4009 36.257 24.3285 35.8854 24.513 35.6115C24.6975 35.3377 25.0691 35.2653 25.3431 35.4498L27.3219 36.7832C27.5957 36.9677 27.6682 37.3394 27.4836 37.6133C27.3682 37.7846 27.1794 37.8771 26.9872 37.8771Z" fill="#FAC515"/>
<path d="M24.5052 39.5333C24.3059 39.5333 24.1111 39.4338 23.9977 39.2524L23.0393 37.7201C22.8642 37.4401 22.9492 37.0712 23.2292 36.896C23.5092 36.7209 23.8781 36.8059 24.0532 37.086L25.0116 38.6182C25.1867 38.8982 25.1017 39.2671 24.8217 39.4423C24.7231 39.5038 24.6135 39.5333 24.5052 39.5333Z" fill="#FAC515"/>
<path d="M27.5911 34.9539C27.5567 34.9539 27.5219 34.9509 27.4869 34.9447L25.7069 34.6318C25.3817 34.5747 25.1644 34.2647 25.2215 33.9393C25.2787 33.614 25.5892 33.3968 25.914 33.454L27.694 33.7669C28.0192 33.824 28.2365 34.134 28.1794 34.4593C28.1283 34.7496 27.8759 34.9539 27.5911 34.9539Z" fill="#FAC515"/>
</g>
<defs>
<clipPath id="clip0_86_88633">
<rect width="40" height="40" fill="white" transform="translate(0 0.5)"/>
</clipPath>
</defs>
</svg>
