<svg width="33" height="32" viewBox="0 0 33 32" fill="none" xmlns="http://www.w3.org/2000/svg">
<g clip-path="url(#clip0_56_92139)">
<path d="M22.9851 30.6712H9.74634V10.5005C9.74634 10.1553 10.0262 9.87549 10.3713 9.87549H22.3601C22.7053 9.87549 22.9851 10.1553 22.9851 10.5005V30.6712Z" fill="#2970FF"/>
<path d="M17.8001 30.6713H14.9312V28.1462C14.9312 27.8011 15.211 27.5212 15.5562 27.5212H17.1751C17.5203 27.5212 17.8001 27.8011 17.8001 28.1462V30.6713Z" fill="#CA8504"/>
<path d="M19.1075 17.0947H13.624C13.2788 17.0947 12.999 16.8149 12.999 16.4697V14.2505C12.999 13.9053 13.2788 13.6255 13.624 13.6255H19.1075C19.4527 13.6255 19.7325 13.9053 19.7325 14.2505V16.4697C19.7325 16.8149 19.4527 17.0947 19.1075 17.0947Z" fill="white"/>
<path d="M19.1075 24.314H13.624C13.2788 24.314 12.999 24.0342 12.999 23.689V21.4697C12.999 21.1245 13.2788 20.8447 13.624 20.8447H19.1075C19.4527 20.8447 19.7325 21.1245 19.7325 21.4697V23.689C19.7325 24.0342 19.4527 24.314 19.1075 24.314Z" fill="white"/>
<path d="M31.0674 30.6713H22.9851V19.7163L31.212 21.5262C31.5208 21.5941 31.7407 21.8677 31.7407 22.1838V29.998C31.7407 30.3698 31.4392 30.6713 31.0674 30.6713Z" fill="#2970FF"/>
<path d="M26.7097 27.1339H28.1532C28.4983 27.1339 28.7782 26.8541 28.7782 26.5089V25.0654C28.7782 24.7202 28.4983 24.4404 28.1532 24.4404H26.7097C26.3645 24.4404 26.0847 24.7202 26.0847 25.0654V26.5089C26.0847 26.8541 26.3645 27.1339 26.7097 27.1339Z" fill="#EAAA08"/>
<path d="M1.6641 30.6712H9.74635V15.3601H1.61572C1.27054 15.3601 0.990723 15.6399 0.990723 15.9851V29.9979C0.990723 30.3697 1.29222 30.6712 1.6641 30.6712Z" fill="#EAAA08"/>
<path d="M6.02174 27.1339H4.57837C4.23318 27.1339 3.95337 26.8541 3.95337 26.5089V25.0654C3.95337 24.7202 4.23318 24.4404 4.57837 24.4404H6.02181C6.36699 24.4404 6.64681 24.7202 6.64681 25.0654V26.5089C6.64674 26.8541 6.36693 27.1339 6.02174 27.1339Z" fill="white"/>
<path d="M6.02174 21.62H4.57837C4.23318 21.62 3.95337 21.3401 3.95337 20.995V19.5515C3.95337 19.2063 4.23318 18.9265 4.57837 18.9265H6.02181C6.36699 18.9265 6.64681 19.2063 6.64681 19.5515V20.995C6.64674 21.3401 6.36693 21.62 6.02174 21.62Z" fill="white"/>
<path d="M7.02972 15.3602H3.42822V13.4382C3.42822 13.093 3.70804 12.8132 4.05322 12.8132H6.40472C6.74991 12.8132 7.02972 13.093 7.02972 13.4382V15.3602Z" fill="#CA8504"/>
<path d="M22.9851 18.2025V30.6712H9.74634V10.5005C9.74634 10.1553 10.0262 9.87549 10.3713 9.87549H22.3601C22.7053 9.87549 22.9851 10.1553 22.9851 10.5005V12.5075" stroke="black" stroke-miterlimit="10" stroke-linecap="round" stroke-linejoin="round"/>
<path d="M17.8001 30.6711H14.9312V28.146C14.9312 27.8008 15.211 27.521 15.5562 27.521H17.1751C17.5203 27.521 17.8001 27.8008 17.8001 28.146V30.6711Z" stroke="black" stroke-miterlimit="10" stroke-linecap="round" stroke-linejoin="round"/>
<path d="M19.1075 17.0947H13.624C13.2788 17.0947 12.999 16.8149 12.999 16.4697V14.2505C12.999 13.9053 13.2788 13.6255 13.624 13.6255H19.1075C19.4527 13.6255 19.7325 13.9053 19.7325 14.2505V16.4697C19.7325 16.8149 19.4527 17.0947 19.1075 17.0947Z" stroke="black" stroke-miterlimit="10" stroke-linecap="round" stroke-linejoin="round"/>
<path d="M19.1075 24.3137H13.624C13.2788 24.3137 12.999 24.0339 12.999 23.6887V21.4695C12.999 21.1243 13.2788 20.8445 13.624 20.8445H19.1075C19.4527 20.8445 19.7325 21.1243 19.7325 21.4695V23.6887C19.7325 24.0339 19.4527 24.3137 19.1075 24.3137Z" stroke="black" stroke-miterlimit="10" stroke-linecap="round" stroke-linejoin="round"/>
<path d="M1.6641 30.6712H9.74635V15.3601H1.61572C1.27054 15.3601 0.990723 15.6399 0.990723 15.9851V29.9979C0.990723 30.3697 1.29222 30.6712 1.6641 30.6712Z" stroke="black" stroke-miterlimit="10" stroke-linecap="round" stroke-linejoin="round"/>
<path d="M16.3657 17.0947V13.6255" stroke="black" stroke-miterlimit="10" stroke-linecap="round" stroke-linejoin="round"/>
<path d="M16.3657 24.3137V20.8445" stroke="black" stroke-miterlimit="10" stroke-linecap="round" stroke-linejoin="round"/>
<path d="M6.02174 27.1336H4.57837C4.23318 27.1336 3.95337 26.8538 3.95337 26.5086V25.0652C3.95337 24.72 4.23318 24.4402 4.57837 24.4402H6.02181C6.36699 24.4402 6.64681 24.72 6.64681 25.0652V26.5086C6.64674 26.8538 6.36693 27.1336 6.02174 27.1336Z" stroke="black" stroke-miterlimit="10" stroke-linecap="round" stroke-linejoin="round"/>
<path d="M6.02174 21.62H4.57837C4.23318 21.62 3.95337 21.3401 3.95337 20.995V19.5515C3.95337 19.2063 4.23318 18.9265 4.57837 18.9265H6.02181C6.36699 18.9265 6.64681 19.2063 6.64681 19.5515V20.995C6.64674 21.3401 6.36693 21.62 6.02174 21.62Z" stroke="black" stroke-miterlimit="10" stroke-linecap="round" stroke-linejoin="round"/>
<path d="M31.0674 30.6711H22.9851V19.7161L31.212 21.5259C31.5208 21.5939 31.7407 21.8674 31.7407 22.1836V29.9978C31.7407 30.3696 31.4392 30.6711 31.0674 30.6711Z" stroke="black" stroke-miterlimit="10" stroke-linecap="round" stroke-linejoin="round"/>
<path d="M26.7097 27.1336H28.1532C28.4983 27.1336 28.7782 26.8538 28.7782 26.5086V25.0652C28.7782 24.72 28.4983 24.4402 28.1532 24.4402H26.7097C26.3645 24.4402 26.0847 24.72 26.0847 25.0652V26.5086C26.0847 26.8538 26.3645 27.1336 26.7097 27.1336Z" stroke="black" stroke-miterlimit="10" stroke-linecap="round" stroke-linejoin="round"/>
<path d="M7.02972 15.3599H3.42822V13.438C3.42822 13.0928 3.70804 12.813 4.05322 12.813H6.40472C6.74991 12.813 7.02972 13.0928 7.02972 13.438V15.3599Z" stroke="black" stroke-miterlimit="10" stroke-linecap="round" stroke-linejoin="round"/>
</g>
<defs>
<clipPath id="clip0_56_92139">
<rect width="32" height="32" fill="white" transform="translate(0.365723)"/>
</clipPath>
</defs>
</svg>
