<svg width="492" height="341" viewBox="0 0 492 341" fill="none" xmlns="http://www.w3.org/2000/svg">
<g clip-path="url(#clip0_56_86911)">
<mask id="mask0_56_86911" style="mask-type:luminance" maskUnits="userSpaceOnUse" x="0" y="13" width="492" height="329">
<path d="M491.5 13.7571H0.5V341.308H491.5V13.7571Z" fill="white"/>
</mask>
<g mask="url(#mask0_56_86911)">
<path d="M266.347 255.837C265.764 258.798 266.753 262.571 270.007 263.501C271.63 263.967 273.372 263.56 274.936 263.036C276.796 262.46 278.596 261.641 280.102 260.481C281.031 259.846 281.902 259.027 282.537 258.103C283.061 257.291 283.408 256.361 283.755 255.49C283.526 255.313 290.72 241.32 290.544 241.084" fill="#155EEF"/>
<path d="M294.262 349.909C294.609 346.601 298.439 314.193 298.439 312.28C298.439 310.361 325.948 313.846 337.437 312.103C348.927 310.361 363.899 308.271 363.899 308.271C363.899 308.271 374.865 313.152 375.565 321.688C376.259 330.224 377.83 345.035 377.83 346.771C377.83 348.514 294.262 349.909 294.262 349.909Z" fill="#66613B"/>
<path d="M315.499 192.416C316.023 197.644 324.03 207.923 328.907 207.923C333.784 207.923 337.522 197.467 336.305 188.237C335.087 179.006 315.499 192.416 315.499 192.416Z" fill="#FFA387"/>
<path d="M362.858 311.409C362.275 312.975 359.257 317.973 359.257 317.973C359.257 317.973 363.67 332.49 376.2 328.429C377.359 325.409 376.174 321.085 376.174 321.085C376.174 321.085 372.023 308.677 362.858 311.409Z" fill="#FF9B7D"/>
<path fill-rule="evenodd" clip-rule="evenodd" d="M298.177 304.177C298.092 306.267 297.915 311.927 298.439 312.28C298.963 312.628 319.768 316.028 336.043 313.761C352.324 311.494 362.681 309.929 364.338 309.142C365.994 308.356 365.123 299.65 364.946 298.864C363.991 298.431 351.192 306.011 298.177 304.177Z" fill="#4F3D35"/>
<path fill-rule="evenodd" clip-rule="evenodd" d="M324.815 304.131C324.998 306.548 325.817 314.888 326.177 315.064C326.537 315.241 339.643 314.888 344.468 313.184C345.83 311.121 343.742 302.788 343.742 302.788C343.742 302.788 340.645 302.519 340.468 303.148C340.285 303.777 341.378 311.396 340.927 311.756C340.468 312.117 329.732 313.014 329.188 313.099C328.638 313.191 327.912 303.777 327.912 303.777L324.815 304.131Z" fill="#DB8363"/>
<path d="M314.223 303.803C313.987 306.358 313.876 314.835 313.876 314.835C313.876 314.835 316.776 315.648 317.012 314.717C317.241 313.787 316.665 303.797 316.665 303.797H314.223V303.803Z" fill="#66613B"/>
<path d="M351.48 301.131C351.715 302.755 351.945 312.51 352.292 312.398C352.638 312.28 355.074 312.28 355.192 311.815C355.31 311.35 354.845 300.547 354.845 300.547L351.48 301.131Z" fill="#66613B"/>
<path d="M274.589 214.199C277.725 207.405 279.113 196.95 287.296 194.166C295.48 191.375 306.969 189.809 311.146 190.333C315.323 190.857 314.805 191.381 315.499 192.423C316.193 193.471 318.111 196.603 321.071 197.651C324.03 198.699 325.254 197.867 326.295 201.699C327.12 204.745 327.035 205.184 327.598 205.532C328.645 205.007 327.159 201.83 330.472 200.265C333.778 198.699 336.39 195.214 336.22 190.857C336.743 188.767 342.485 190.163 343.008 192.947C343.185 194.513 343.185 194.513 343.185 194.513C346.144 195.554 353.11 195.908 357.981 201.83C362.858 207.752 367.558 216.118 369.3 233.714C371.041 251.31 373.824 261.241 377.83 272.562C381.837 283.888 389.667 310.02 380.789 315.241C379.395 320.646 378.007 324.478 377.136 323.954C376.266 323.43 374.701 311.586 362.858 311.409C363.382 307.577 364.54 305.579 363.846 299.132C351.833 302.441 351.892 303.22 327.166 304.786C320.161 305.231 301.398 305.657 299.133 304.963C296.868 304.268 290.255 303.744 290.426 293.813C290.602 283.882 294.923 240.737 293.791 240.036C281.954 244.68 266.17 241.837 265.47 239.918L274.589 214.199Z" fill="#155EEF"/>
<path d="M312.887 144.509C309.581 147.293 306.674 152.521 307.545 158.967C308.416 165.413 309.404 173.949 309.751 175.692C310.098 177.434 336.213 180.395 337.26 172.383C343.355 174.473 344.573 165.413 340.566 163.323C338.301 157.054 336.913 148.688 336.913 148.688C336.913 148.688 319.506 139.805 312.887 144.509Z" fill="#FFA387"/>
<path d="M308.305 166.402C307.375 169.075 307.604 174.067 307.375 180.919C307.146 187.772 310.321 192.534 316.979 193.982C326.989 196.164 336.226 195.541 337.699 186.232C339.526 174.65 337.319 166.632 337.319 166.632C337.319 166.632 338.596 163.847 340.102 163.847C341.608 163.847 341.47 161.306 341.758 159.753C342.282 156.877 342.367 153.687 343.761 153.222C345.156 152.757 349.045 152.003 348.927 147.359C348.809 142.714 345.791 143.061 344.167 142.249C342.544 141.436 345.097 137.722 343.12 135.278C341.149 132.841 338.596 134.23 335.807 134.466C333.025 134.702 335.225 131.793 334.531 129.238C333.837 126.684 329.195 124.823 323.506 129.468C317.817 134.112 315.729 133.3 312.246 133.418C308.763 133.536 306.092 137.951 306.904 141.43C307.715 144.915 305.627 146.304 304.004 148.4C302.38 150.49 303.133 155.98 307.31 156.445C308.004 153.307 308.416 148.4 313.751 144.915C317.699 149.095 324.285 150.981 327.067 148.774C329.85 146.566 329.85 146.173 331.388 148.282C331.938 149.036 333.071 150.49 334.465 150.601C333.68 159.137 336.383 158.836 335.86 165.321C334.118 166.193 333.162 167.064 331.277 171.276C330.603 172.783 329.882 170.464 327.329 168.957C324.776 167.45 322.341 165.354 318.275 167.909C314.21 170.464 313.745 171.977 312.468 171.158C311.205 170.353 309.234 166.291 308.305 166.402Z" fill="#DB6844"/>
<path d="M327.513 159.452C325.948 159.196 325.143 162.059 327.12 162.459C329.28 162.891 329.11 159.714 327.513 159.452Z" fill="black"/>
<path d="M314.89 159.93C313.326 159.674 312.514 162.537 314.491 162.937C316.658 163.369 316.488 160.192 314.89 159.93Z" fill="black"/>
<path d="M319.768 160.231C319.46 161.319 319.1 162.393 318.773 163.474C318.53 164.26 318.17 165.223 318.269 166.055C318.419 167.3 320.796 167.431 321.653 167.352C322.072 167.313 322.072 166.658 321.653 166.697C320.92 166.769 320.259 166.612 319.552 166.415C318.504 166.114 319.126 164.706 319.27 164.109C319.565 162.858 320.049 161.646 320.403 160.408C320.521 160.002 319.886 159.825 319.768 160.231Z" fill="black"/>
<path d="M317.941 172.003C319.388 171.42 320.868 171.302 322.38 170.968C322.727 170.877 323.087 170.818 323.447 170.798C324.665 170.693 324.606 172.069 324.658 172.737C324.73 173.661 324.593 174.565 324.219 175.41C323.473 177.087 321.417 177.768 319.859 176.877C318.196 175.928 318.262 173.412 318.059 171.781C318.007 171.368 317.352 171.361 317.404 171.781C317.679 173.962 317.712 176.399 319.846 177.624C321.561 178.607 323.558 177.506 324.586 176.098C325.568 174.748 325.778 171.879 324.691 170.549C324.219 169.973 323.205 170.156 322.589 170.261C320.966 170.549 319.316 170.765 317.778 171.381C317.378 171.525 317.548 172.161 317.941 172.003Z" fill="black"/>
<path d="M318.845 176.065C320.416 174.886 322.943 174.381 324.861 174.368C325.28 174.368 325.287 173.713 324.861 173.713C322.805 173.726 320.193 174.237 318.517 175.502C318.183 175.751 318.504 176.321 318.845 176.065Z" fill="black"/>
<path d="M312.095 154.84C311.506 155.154 311.041 155.698 310.439 155.999C309.45 156.497 309.352 155.298 309.483 154.65C309.627 153.883 310.033 153.11 310.543 152.521C311.08 151.898 311.866 151.328 312.678 151.256C313.66 151.171 315.041 151.086 315.846 151.774C317.28 152.992 314.943 153.589 314.085 153.942C313.411 154.224 312.737 154.499 312.095 154.84Z" fill="#DB6844"/>
<path d="M325.98 153.746C327.349 154.027 328.704 154.303 329.994 154.879C330.386 155.056 331.165 155.403 331.388 154.794C331.984 152.848 329.365 151.184 327.781 150.948C326.609 150.772 324.894 150.909 324.259 152.141C323.833 152.966 324.265 153.379 325.057 153.556C325.365 153.615 325.673 153.68 325.98 153.746Z" fill="#DB6844"/>
<path d="M311.237 144.653C312.671 144.312 315.133 146.251 316.363 147.077C317.791 148.04 319.074 149.068 320.743 149.592C323.237 150.372 326.249 150.156 328.305 148.459C328.953 147.922 329.758 146.697 330.596 147.955C330.963 148.505 331.408 148.964 331.905 149.402C332.848 150.228 333.967 150.804 335.218 150.883C337.28 151.014 339.578 149.488 339.506 147.3C339.493 146.88 338.838 146.88 338.851 147.3C338.91 149.127 337.175 150.044 335.578 150.221C333.823 150.418 332.095 148.95 331.152 147.627C330.884 147.254 330.386 146.317 329.778 146.468C328.678 146.73 328.095 147.87 327.192 148.485C324.416 150.379 320.377 149.114 317.908 147.391C316.553 146.448 314.982 145.675 313.725 144.62C312.802 143.847 312.2 143.755 311.054 144.031C310.648 144.116 310.825 144.751 311.237 144.653Z" fill="black"/>
<path d="M308.658 190.851C307.8 193.144 309.732 195.436 310.923 197.277C312.593 199.852 314.249 202.433 316.003 204.955C316.854 206.18 318.275 207.798 319.945 206.868C322.053 205.695 322.845 202.767 325.162 202.053C325.568 201.928 325.391 201.3 324.985 201.424C323.637 201.837 322.838 202.839 322.039 203.94C321.234 205.047 320.108 206.704 318.458 206.39C317.326 206.174 316.501 204.536 315.905 203.678C314.596 201.791 313.385 199.839 312.121 197.919C310.943 196.124 308.435 193.268 309.28 191.021C309.437 190.628 308.802 190.464 308.658 190.851Z" fill="black"/>
<path d="M293.895 193.805C295.008 196.354 295.382 199.262 295.925 201.961C296.566 205.165 296.632 208.499 296.639 211.755C296.639 212.174 297.293 212.174 297.293 211.755C297.293 208.61 297.169 205.466 296.658 202.361C296.174 199.419 295.656 196.223 294.458 193.471C294.288 193.091 293.725 193.419 293.895 193.805Z" fill="black"/>
<path d="M327.179 205.682C328.017 206.265 329.11 206.802 330.046 207.195C331.382 207.752 331.074 210.451 331.113 211.67C331.126 212.089 331.781 212.096 331.768 211.67C331.742 210.805 331.702 209.94 331.656 209.076C331.63 208.637 331.761 207.654 331.414 207.254C331.015 206.796 330.452 206.698 329.954 206.357C329.195 205.839 328.272 205.636 327.519 205.112C327.159 204.876 326.832 205.446 327.179 205.682Z" fill="black"/>
<path d="M330.151 203.999C330.91 202.721 331.918 201.024 333.555 202.413C334.373 203.108 335.257 203.651 336.004 204.438C336.763 205.237 337.869 206.265 338.989 205.387C340.344 204.32 341.077 202.649 341.64 201.064C342.367 199.013 342.976 196.694 343.087 194.519C343.107 194.1 342.452 194.1 342.432 194.519C342.321 196.655 341.666 198.863 341.012 200.893C340.599 202.171 339.99 203.304 339.159 204.352C337.954 205.879 336.593 204.071 335.781 203.298C335.015 202.57 333.496 201.011 332.37 201.011C331.015 201.011 330.177 202.695 329.588 203.671C329.365 204.031 329.935 204.359 330.151 203.999Z" fill="black"/>
<path d="M333.64 228.395C332.92 231.192 333.116 234.074 333.103 236.937C333.084 240.068 332.678 243.265 333.097 246.384C333.516 249.489 334.321 252.542 334.904 255.621C335.545 259.001 335.912 262.191 335.886 265.631C335.866 268.827 335.624 271.992 335.846 275.188C336.062 278.326 336.063 281.445 336.063 284.589C336.063 290.053 337.909 296.643 333.719 301.065C333.431 301.373 333.889 301.838 334.184 301.53C337.791 297.717 337.117 292.568 336.789 287.753C336.586 284.76 336.743 281.739 336.711 278.739C336.671 275.333 336.331 271.985 336.455 268.565C336.56 265.591 336.724 262.519 336.311 259.558C335.846 256.263 335.081 252.961 334.36 249.718C333.542 246.056 333.594 242.532 333.712 238.804C333.824 235.404 333.411 231.886 334.269 228.558C334.38 228.159 333.745 227.988 333.64 228.395Z" fill="black"/>
<path d="M359.742 232.319C359.467 235.221 358.838 238.07 358.465 240.959C358.086 243.868 358.072 246.803 358.144 249.731C358.282 255.404 359.087 261.012 360.396 266.528C361.725 272.116 364.023 277.488 364.41 283.272C364.599 286.07 364.789 288.834 364.789 291.645C364.789 293.23 364.639 294.776 364.122 296.283C363.788 297.259 363.467 298.189 363.395 299.224C363.369 299.643 364.023 299.643 364.05 299.224C364.135 297.881 364.73 296.676 365.064 295.392C365.385 294.167 365.437 292.902 365.437 291.645C365.437 288.834 365.176 286.076 365.058 283.272C364.835 277.861 362.649 272.752 361.32 267.57C359.82 261.72 358.982 255.771 358.793 249.738C358.694 246.633 358.753 243.527 359.192 240.448C359.578 237.736 360.135 235.057 360.396 232.325C360.436 231.893 359.781 231.899 359.742 232.319Z" fill="black"/>
<path d="M365.843 304.347C368.377 303.751 371.356 306.135 373.365 307.387C374.583 308.147 375.598 309.247 376.554 310.302C377.562 311.403 378.629 312.483 379.29 313.839C379.473 314.219 380.043 313.885 379.853 313.512C378.531 310.806 375.762 308.12 373.235 306.542C371.166 305.245 368.285 303.102 365.667 303.718C365.261 303.816 365.437 304.445 365.843 304.347Z" fill="black"/>
<path d="M365.261 286.116C365.948 283.672 367.323 281.602 368.632 279.46C369.876 277.422 371.172 275.437 372.835 273.714C373.13 273.413 372.665 272.948 372.37 273.249C370.668 275.012 369.346 277.042 368.063 279.126C366.721 281.314 365.326 283.443 364.626 285.939C364.514 286.351 365.149 286.528 365.261 286.116Z" fill="black"/>
<path d="M366.426 280.659C367.107 278.51 368.671 276.656 369.758 274.697C369.961 274.33 369.398 273.996 369.195 274.37C368.076 276.387 366.498 278.274 365.797 280.488C365.666 280.888 366.295 281.065 366.426 280.659Z" fill="black"/>
<path d="M328.2 210.956C327.827 210.687 327.735 210.065 327.951 209.672C328.193 209.239 328.822 209.809 328.966 210.065C329.13 210.353 329.09 210.733 328.94 211.015C328.73 211.395 328.305 211.355 327.971 211.185C327.598 210.995 327.264 211.558 327.643 211.748C328.311 212.083 329.012 212.03 329.47 211.401C329.863 210.864 329.791 210.045 329.411 209.534C328.972 208.945 327.951 208.538 327.44 209.266C326.949 209.973 327.205 211.034 327.879 211.513C328.22 211.762 328.54 211.198 328.2 210.956Z" fill="black"/>
<path d="M329.483 238.83C329.221 238.326 328.92 237.959 329.241 237.402C329.516 236.924 330 236.878 330.406 237.212C330.727 237.474 330.858 237.913 330.746 238.306C330.616 238.765 329.692 238.785 329.319 238.791C328.9 238.798 328.894 239.453 329.319 239.446C330.026 239.433 331.028 239.335 331.336 238.581C331.611 237.907 331.329 237.134 330.786 236.682C330.17 236.177 329.431 236.243 328.881 236.813C328.652 237.048 328.396 237.5 328.416 237.841C328.442 238.352 328.691 238.726 328.927 239.164C329.11 239.531 329.679 239.204 329.483 238.83Z" fill="black"/>
<path d="M330.871 259.964C330.478 259.342 330.4 258.365 331.094 257.887C331.591 257.547 331.997 258.411 332.082 258.759C332.193 259.204 331.984 259.473 331.571 259.617C331.264 259.722 330.812 259.728 330.799 259.315C330.779 258.896 330.125 258.89 330.144 259.315C330.177 260.134 330.884 260.429 331.611 260.285C331.945 260.219 332.279 260.023 332.501 259.767C332.802 259.42 332.796 259.007 332.711 258.582C332.56 257.802 331.781 256.878 330.91 257.245C330.413 257.455 330.164 257.966 329.994 258.444C329.765 259.086 329.954 259.735 330.301 260.291C330.531 260.652 331.1 260.324 330.871 259.964Z" fill="black"/>
<path d="M330.76 283.194C330.531 282.84 330.38 282.506 330.59 282.106C330.707 281.877 331.015 281.798 331.251 281.785C331.761 281.746 332.161 282.113 332.187 282.617C332.213 283.037 331.971 283.462 331.624 283.679C331.166 283.967 330.76 283.574 330.531 283.194C330.308 282.834 329.745 283.161 329.968 283.521C330.4 284.222 331.107 284.655 331.905 284.275C332.567 283.954 332.94 283.102 332.828 282.395C332.684 281.523 331.866 280.999 331.009 281.156C330.59 281.235 330.197 281.458 330 281.844C329.699 282.427 329.869 283.004 330.203 283.528C330.419 283.882 330.989 283.554 330.76 283.194Z" fill="black"/>
<path d="M296.534 337.043C300.678 338.917 304.73 335.242 306.733 331.874C308.036 329.686 308.494 327.079 308.678 324.577C308.913 321.458 308.717 318.196 308.606 315.071C308.593 314.652 307.938 314.645 307.951 315.071C308.121 319.703 308.56 324.721 307.192 329.202C306.007 333.073 301.404 338.53 296.867 336.48C296.481 336.303 296.147 336.866 296.534 337.043Z" fill="black"/>
<path d="M309.791 315.503C310.537 318.307 310.681 321.295 310.517 324.184C310.334 327.446 309.391 330.348 308.226 333.361C308.075 333.755 308.704 333.925 308.854 333.538C309.981 330.636 310.779 327.891 311.12 324.793C311.46 321.701 311.218 318.347 310.419 315.34C310.314 314.92 309.679 315.097 309.791 315.503Z" fill="black"/>
<path d="M357.306 312.457C357.536 314.927 358.694 317.2 359.67 319.447C360.783 322.002 362.164 324.452 364.22 326.372C365.935 327.963 368.292 328.73 370.537 329.156C372.593 329.549 374.832 329.706 376.599 328.422C376.94 328.18 376.612 327.61 376.272 327.859C374.478 329.156 372.246 328.822 370.203 328.435C367.807 327.977 365.647 326.928 363.932 325.179C362.413 323.633 361.372 321.609 360.475 319.663C359.434 317.403 358.197 314.973 357.961 312.47C357.922 312.038 357.267 312.031 357.306 312.457Z" fill="black"/>
<path d="M355.84 315.503C357.038 319.775 358.413 323.587 361.411 326.974C362.583 328.298 364.364 329.071 365.955 329.739C368.056 330.623 370.21 331.363 372.521 331.16C372.94 331.121 372.94 330.466 372.521 330.505C368.874 330.826 363.938 328.841 361.503 326.09C358.76 322.991 357.562 319.218 356.468 315.327C356.357 314.92 355.722 315.097 355.84 315.503Z" fill="black"/>
<path d="M332.324 315.589C332.141 321.773 333.647 327.865 334.013 334.01C334.098 335.458 333.385 337.692 335.093 338.38C336.494 338.943 339.061 337.01 339.938 336.119C340.233 335.818 339.774 335.353 339.473 335.654C338.825 336.309 338 336.742 337.208 337.2C335.774 338.039 334.616 337.299 334.642 335.667C334.675 333.447 334.439 331.304 334.164 329.103C333.601 324.649 332.848 320.096 332.979 315.589C332.992 315.169 332.337 315.169 332.324 315.589Z" fill="black"/>
<path d="M339.29 316.46C339.368 322.644 340.612 328.9 339.984 335.097C339.945 335.517 340.599 335.517 340.638 335.097C341.26 328.9 340.017 322.644 339.945 316.46C339.938 316.041 339.283 316.041 339.29 316.46Z" fill="black"/>
<path d="M322.694 252.057C325.031 249.869 328.292 248.749 331.185 247.497C334.439 246.095 337.712 244.746 340.914 243.22C341.293 243.036 340.966 242.473 340.586 242.656C337.385 244.183 334.118 245.532 330.858 246.934C327.899 248.205 324.619 249.364 322.236 251.592C321.928 251.887 322.387 252.345 322.694 252.057Z" fill="black"/>
<path d="M265.358 319.251C265.241 323.201 265.011 338.235 266.052 339.343C267.1 340.45 268.835 341.55 270.465 341.55C272.095 341.55 276.736 339.572 278.013 332.372C279.29 325.173 276.619 324.937 275.807 321.806C274.995 318.668 274.53 315.3 274.53 315.3L265.247 315.53L265.358 319.251Z" fill="#FF9B7D"/>
<path d="M266.229 318.989C267.538 319.074 272.324 319.336 275.807 320.816C276.592 320.993 276.069 318.032 275.892 316.637C275.715 315.241 267.479 310.99 266.347 312.647C265.221 314.305 266.229 318.989 266.229 318.989Z" fill="#D0D4D6"/>
<path d="M266.262 325.52C266.76 328.376 266.936 331.141 267.689 333.958C268.075 335.412 268.396 337.214 269.771 338.078C271.041 338.877 272.226 337.2 272.553 336.205C273.404 333.584 271.27 331.088 272.377 328.389C272.54 327.996 271.905 327.832 271.748 328.212C271.126 329.726 271.296 331.18 271.663 332.739C271.859 333.584 272.03 334.377 272.03 335.255C272.036 336.198 271.598 337.168 270.661 337.554C269.987 337.829 269.47 336.925 269.221 336.506C268.383 335.071 268.128 333.119 267.748 331.527C267.264 329.483 267.251 327.4 266.891 325.337C266.825 324.93 266.19 325.107 266.262 325.52Z" fill="black"/>
<path d="M269.967 341.177C268.75 340.45 269.411 338.792 269.522 337.711C269.561 337.292 268.907 337.292 268.867 337.711C268.828 338.118 268.671 338.491 268.625 338.897C268.586 339.29 268.586 339.709 268.638 340.096C268.736 340.803 269.018 341.367 269.64 341.734C270 341.963 270.327 341.393 269.967 341.177Z" fill="black"/>
<path d="M197.692 343.293L267.1 343.987C267.1 343.987 265.941 319.827 264.082 310.308C262.223 300.783 252.939 285.225 251.781 285.683C250.622 286.148 207.676 316.113 195.139 316.807C196.304 328.193 197.692 343.293 197.692 343.293Z" fill="#123042"/>
<path d="M219.087 196.426C219.277 193.065 218.903 182.989 217.967 176.085C212.37 177.022 209.81 168.407 212.003 165.452C214.674 161.843 217.594 166.881 217.594 166.881C218.897 166.697 217.404 154.257 222.255 150.333C227.106 146.415 235.309 144.732 243.139 148.466C250.969 152.2 251.532 157.237 251.159 161.712C250.786 166.186 249.11 165.446 249.666 172.907C250.223 180.369 245.935 187.464 238.661 189.324C238.851 195.109 239.624 202.603 239.067 204.28C238.511 205.97 226.17 204.634 219.087 196.426Z" fill="#FF9B7D"/>
<path fill-rule="evenodd" clip-rule="evenodd" d="M212.933 164.516C214.425 163.769 217.221 165.262 217.502 167.595C217.784 169.927 218.713 169.553 220.114 169.37C221.515 169.18 220.861 164.987 220.579 163.867C220.298 162.747 221.417 160.788 222.726 160.133C224.029 159.478 225.62 159.478 224.402 154.722C223.191 149.966 222.91 150.431 224.867 148.846C226.825 147.26 236.71 145.02 243.237 148.754C249.764 152.488 249.326 154.728 252.592 153.327C255.853 151.925 257.221 147.352 253.587 145.491C249.954 143.624 249.018 143.441 250.602 141.574C252.186 139.707 252.56 135.043 247.99 135.416C243.421 135.789 235.126 139.615 231.578 139.052C228.036 138.488 222.163 137.277 221.319 145.583C215.453 146.697 211.165 146.887 212.933 164.516Z" fill="#944A2F"/>
<path d="M234.098 162.701C232.684 162.426 231.748 165.59 233.542 166.009C235.499 166.481 235.545 162.976 234.098 162.701Z" fill="black"/>
<path d="M246.314 163.867C244.9 163.592 243.97 166.756 245.758 167.182C247.709 167.647 247.754 164.142 246.314 163.867Z" fill="black"/>
<path fill-rule="evenodd" clip-rule="evenodd" d="M229.221 158.05C229.201 156.307 231.185 153.503 234.504 153.634C237.823 153.765 239.133 156.366 237.47 156.484C235.813 156.609 234.504 156.183 231.335 157.834C229.136 158.987 229.522 158.652 229.221 158.05Z" fill="#944A2F"/>
<path fill-rule="evenodd" clip-rule="evenodd" d="M244.259 156.871C244.304 157.48 246.308 157.244 247.8 158.594C249.293 159.943 249.62 160.972 249.948 160.415C250.275 159.858 250.039 156.916 247.99 155.705C245.941 154.486 244.259 156.17 244.259 156.871Z" fill="#944A2F"/>
<path d="M241.182 159.059C241.09 161.319 240.547 164.123 241.352 166.278C241.568 166.854 242.059 167.405 242.55 167.752C244.972 169.462 241.738 171.237 240.16 171.761C239.761 171.892 239.931 172.528 240.337 172.39C241.326 172.062 245.45 170.012 244.2 168.335C243.218 167.018 241.836 166.684 241.699 164.758C241.568 162.871 241.751 160.939 241.836 159.052C241.856 158.639 241.201 158.639 241.182 159.059Z" fill="black"/>
<path d="M234.864 173.667C235.951 174.198 237.044 174.257 238.236 174.323C239.781 174.414 241.247 174.801 242.766 174.971C242.674 174.807 242.576 174.643 242.484 174.48C241.804 176.078 240.933 178.332 239.506 179.426C238.131 180.48 236.736 178.26 236.239 177.362C235.61 176.229 235.322 174.755 235.309 173.477C235.303 173.058 234.648 173.052 234.655 173.477C234.681 175.508 235.65 179.648 238.124 180.205C240.828 180.815 242.249 176.687 243.047 174.814C243.152 174.571 243.028 174.349 242.766 174.323C241.79 174.211 240.841 173.903 239.853 173.798C238.308 173.628 236.625 173.812 235.191 173.111C234.818 172.914 234.484 173.477 234.864 173.667Z" fill="black"/>
<path d="M235.591 176.412C236.645 176.275 237.679 176.543 238.628 177.015C239.434 177.415 239.617 178.266 240.108 178.908C240.363 179.242 240.933 178.915 240.671 178.581C240.416 178.247 240.324 177.814 240.062 177.487C239.728 177.08 239.394 176.74 238.956 176.445C238.039 175.836 236.664 175.613 235.591 175.757C235.178 175.816 235.172 176.471 235.591 176.412Z" fill="black"/>
<path d="M223.794 179.006C225.149 181.863 226.543 185.145 229.208 187.031C232.003 189.01 235.506 190.425 238.943 189.789C239.355 189.711 239.178 189.082 238.766 189.161C235.408 189.776 231.787 188.217 229.155 186.167C226.844 184.365 225.581 181.247 224.357 178.672C224.18 178.292 223.61 178.627 223.794 179.006Z" fill="black"/>
<path d="M216.946 176.366C217.45 176.36 217.948 176.301 218.386 176.045C218.825 175.783 219.165 175.344 219.538 175.004C219.853 174.716 219.388 174.257 219.074 174.539C218.779 174.814 218.504 175.115 218.203 175.377C217.856 175.679 217.384 175.711 216.946 175.718C216.52 175.718 216.52 176.373 216.946 176.366Z" fill="black"/>
<path d="M194.445 318.438C201.875 324.943 219.054 327.498 226.943 326.804C234.831 326.11 245.804 325.409 252.304 299.394C259.421 325.92 263.159 325.179 265.012 325.179C266.871 325.179 266.563 314.671 266.563 314.671C266.563 314.671 272.259 314.508 276.435 317.292C277.83 314.272 275.303 298.464 273.679 291.73C272.056 284.995 268.108 275.935 266.949 260.606C265.791 245.277 262.648 227.956 257.777 220.284C252.9 212.62 244.206 202.525 243.047 202.76C242.962 203.547 243.414 210.412 242.72 212.043C242.026 213.668 195.368 211.591 194.203 216.701C193.051 221.804 189.339 293.348 194.445 318.438Z" fill="#CA8504"/>
<path d="M202.425 259.669C205.928 263.842 210.268 268.159 216.147 267.72C219.218 267.491 222.118 266.043 224.723 264.497C228.979 261.969 232.822 258.726 236.547 255.49C236.867 255.214 236.403 254.749 236.082 255.024C232.592 258.051 229.018 261.006 225.116 263.482C222.478 265.159 219.558 266.646 216.422 267.032C210.655 267.74 206.281 263.246 202.884 259.204C202.615 258.876 202.15 259.348 202.425 259.669Z" fill="black"/>
<path d="M213.378 195.823C213.378 194.952 218.124 188.08 218.871 188.984C224.56 195.954 229.679 202.964 238.576 204.293C240.069 203.455 238.753 194.945 238.93 193.55C240.789 194.48 246.576 208.257 243.552 211.925C242.301 213.294 215.735 207.143 213.378 195.823Z" fill="#D0D4D6"/>
<path d="M238.635 208.65C238.648 207.687 238.7 206.534 239.244 205.702C239.093 205.741 238.943 205.78 238.799 205.82C239.532 206.318 239.997 207.156 240.396 207.929C240.782 208.683 240.972 209.534 241.515 210.189C241.784 210.517 242.249 210.052 241.98 209.724C241.417 209.043 241.168 207.969 240.743 207.176C240.344 206.442 239.833 205.722 239.132 205.25C238.982 205.145 238.779 205.224 238.687 205.368C238.085 206.291 238 207.569 237.987 208.643C237.974 209.076 238.628 209.069 238.635 208.65Z" fill="black"/>
<path d="M244.003 249.214C245.044 251.998 249.083 261.464 249.43 263.325C251.054 259.957 252.795 249.764 251.866 245.814C250.943 241.87 244.003 249.214 244.003 249.214Z" fill="#D0D4D6"/>
<path d="M251.467 253.138C250.949 256.223 250.268 259.276 249.633 262.335C249.175 264.537 248.494 266.849 248.416 269.103C248.291 272.575 248.894 276.158 249.273 279.604C250.072 286.764 251.002 293.905 251.99 301.045C252.049 301.465 252.678 301.281 252.619 300.868C251.656 293.898 250.753 286.921 249.961 279.931C249.568 276.433 249.064 272.876 249.057 269.352C249.057 267.236 249.738 265.021 250.164 262.964C250.825 259.748 251.552 256.544 252.095 253.308C252.167 252.895 251.539 252.719 251.467 253.138Z" fill="black"/>
<path d="M255.82 250C255.264 252.614 254.628 255.234 253.548 257.691C252.547 259.957 251.244 262.06 250.334 264.373C250.177 264.766 250.812 264.936 250.962 264.55C251.918 262.119 253.286 259.885 254.34 257.501C255.362 255.182 255.925 252.646 256.448 250.177C256.534 249.757 255.905 249.587 255.82 250Z" fill="black"/>
<path d="M236.468 249.148C239.015 250.779 240.808 253.957 242.465 256.4C244.272 259.066 245.961 261.805 247.663 264.537C247.885 264.897 248.455 264.563 248.226 264.209C246.373 261.235 244.52 258.254 242.543 255.365C240.959 253.053 239.204 250.137 236.795 248.591C236.442 248.356 236.114 248.919 236.468 249.148Z" fill="black"/>
<path d="M257.895 252.869C257.581 262.643 259.244 272.372 260.979 281.949C262.982 293.001 265.234 304.019 266.295 315.215C266.334 315.634 266.989 315.634 266.949 315.215C265.922 304.36 263.794 293.662 261.823 282.945C260.003 273.04 258.223 262.984 258.55 252.869C258.563 252.443 257.909 252.45 257.895 252.869Z" fill="black"/>
<path d="M205.502 275.726C203.434 276.387 203.093 279.132 202.949 280.973C202.844 282.362 202.635 285.533 203.912 286.548C205.201 287.576 207.342 287.858 208.887 288.225C211.682 288.887 214.53 289.385 217.378 289.758C219.84 290.085 222.373 290.413 224.867 290.236C227.008 290.079 228.239 288.612 229.11 286.758C230.059 284.727 230.681 282.126 230.439 279.872C230.308 278.706 229.437 278.654 228.448 278.451C224.239 277.58 219.938 277.069 215.676 276.538C213.45 276.263 211.218 276.007 208.985 275.811C207.879 275.719 206.602 275.496 205.502 275.726C205.09 275.811 205.267 276.446 205.679 276.355C207.106 276.053 208.887 276.453 210.314 276.59C213.018 276.852 215.722 277.187 218.412 277.547C221.064 277.901 223.715 278.281 226.353 278.733C227.329 278.896 229.673 278.844 229.81 280.069C230.092 282.617 229.149 285.742 227.768 287.858C226.334 290.046 223.728 289.699 221.457 289.548C216.134 289.188 210.34 288.389 205.306 286.528C203.656 285.919 203.669 284.294 203.591 282.696C203.499 280.888 203.519 277.062 205.686 276.368C206.072 276.23 205.902 275.595 205.502 275.726Z" fill="black"/>
<path d="M253.345 268.579C251.761 268.565 251.427 271.933 253.031 272.116C254.792 272.319 255.021 268.808 253.437 268.585C253.025 268.526 252.848 269.162 253.26 269.214C254.092 269.332 254.033 271.468 253.116 271.468C252.377 271.468 252.54 269.221 253.352 269.227C253.764 269.234 253.764 268.579 253.345 268.579Z" fill="black"/>
<path d="M243.827 345.383C244.678 341.707 246.118 337.633 248.056 334.397C248.272 334.036 247.709 333.702 247.493 334.069C245.522 337.351 244.056 341.485 243.198 345.212C243.1 345.618 243.735 345.795 243.827 345.383Z" fill="black"/>
<path d="M246.092 338.904C246.825 338.281 248.16 338.052 249.057 337.764C249.817 337.521 250.583 337.292 251.349 337.069C251.754 336.951 251.584 336.323 251.172 336.44C250.262 336.703 249.358 336.978 248.455 337.272C247.558 337.561 246.367 337.816 245.633 338.439C245.306 338.714 245.777 339.179 246.092 338.904Z" fill="black"/>
<path d="M255.44 234.756C259.794 235.188 264.318 235.889 269.018 235.188C273.719 234.494 282.334 232.404 289.738 233.878C297.136 235.358 302.275 237.363 306.799 238.319C311.323 239.276 310.891 240.586 310.544 241.628C310.197 242.669 308.887 242.931 308.887 242.931C307.846 246.678 304.796 246.502 300.095 243.278C293.738 243.278 292.959 240.841 290.347 242.669C287.735 244.497 275.984 247.026 272.154 248.329C268.324 249.64 258.485 251.991 253.437 247.805C248.39 243.639 255.44 234.756 255.44 234.756Z" fill="#FFBDA8"/>
<path d="M291.126 237.507C292.364 237.894 293.549 238.424 294.779 238.811C296.102 239.223 297.594 239.04 298.956 239.171C300.409 239.309 304.848 238.961 303.591 241.778C302.878 243.377 300.095 243.056 298.694 243.043C298.269 243.036 298.275 243.691 298.694 243.698C300.161 243.711 302.347 243.94 303.539 242.82C304.495 241.916 304.75 240.763 303.932 239.675C302.982 238.418 300.822 238.562 299.46 238.536C297.987 238.509 296.396 238.483 294.956 238.175C293.706 237.907 292.521 237.252 291.297 236.872C290.897 236.754 290.727 237.383 291.126 237.507Z" fill="black"/>
<path d="M304.102 241.778C305.601 242.361 310.354 244.196 310.95 241.549C311.041 241.136 310.413 240.959 310.321 241.372C309.902 243.259 305.391 241.575 304.285 241.143C303.879 240.992 303.709 241.628 304.102 241.778Z" fill="black"/>
<path fill-rule="evenodd" clip-rule="evenodd" d="M129.45 299.853C134.792 298.228 175.178 296.368 193.987 307.983C197.234 322.847 198.164 343.522 198.399 345.848C198.628 348.173 126.667 345.618 126.667 345.618L129.45 299.853Z" fill="#33221F"/>
<path d="M170.497 304.439C170.517 313.034 170.929 321.635 171.191 330.224C171.198 330.486 171.46 330.61 171.682 330.505C172.782 329.994 173.862 329.444 174.916 328.848C175.545 328.494 176.952 327.878 177.083 327.033C177.404 324.93 177.123 322.611 177.07 320.495C176.946 315.372 176.749 310.249 176.54 305.133C176.52 304.714 175.866 304.707 175.885 305.133C176.082 309.837 176.252 314.534 176.383 319.237C176.448 321.602 176.546 323.987 176.474 326.352C176.442 327.426 175.44 327.787 174.582 328.278C173.535 328.881 172.442 329.424 171.348 329.935C171.512 330.027 171.676 330.125 171.839 330.217C171.571 321.629 171.159 313.027 171.145 304.432C171.152 304.019 170.497 304.019 170.497 304.439Z" fill="black"/>
<path d="M121.784 191.604C125.031 186.029 132.697 181.385 136.409 181.614C140.121 181.85 179.82 195.784 182.602 201.359C185.384 206.933 234.543 225.342 247.774 228.126C257.522 230.452 256.887 231.781 257.352 232.948C256.743 235.181 256.599 248.166 253.345 250.95C251.434 252.692 243.191 251.533 243.191 251.533C235.067 253.852 222.766 255.948 196.769 248.513C198.393 266.862 201.993 295.955 195.722 299.905C194.792 304.786 194.91 308.212 194.216 309.136C171.466 299.146 150.576 298.451 131.073 303.332C121.09 287.308 115.983 248.283 116.913 230.864C117.842 213.445 121.784 191.604 121.784 191.604Z" fill="#84ADFF"/>
<path d="M246.93 232.666C246.19 238.883 245.784 245.159 242.969 250.878C242.786 251.258 243.349 251.585 243.532 251.205C246.406 245.375 246.825 239.001 247.584 232.659C247.63 232.247 246.975 232.253 246.93 232.666Z" fill="black"/>
<path d="M134.478 222.551C139.191 225.499 144.258 227.798 149.103 230.504C154.17 233.341 159.361 235.915 164.684 238.234C175.001 242.735 185.745 246.213 196.684 248.834C197.096 248.932 197.267 248.303 196.861 248.205C185.771 245.552 174.916 241.994 164.461 237.435C159.329 235.195 154.314 232.686 149.437 229.947C144.592 227.229 139.525 224.936 134.811 221.994C134.445 221.765 134.117 222.328 134.478 222.551Z" fill="black"/>
<path d="M135.047 292.215C155.178 288.461 176.278 292.424 194.857 300.541C195.237 300.711 195.571 300.141 195.185 299.978C176.428 291.782 155.191 287.793 134.87 291.579C134.458 291.658 134.635 292.287 135.047 292.215Z" fill="black"/>
<path d="M170.458 351.128C170.425 348.121 170.307 345.121 170.334 342.114C170.353 340.43 170.353 338.707 170.615 337.043C170.851 335.556 173.057 335.052 174.294 334.514C174.681 334.351 174.347 333.781 173.967 333.951C172.939 334.397 170.563 334.999 170.157 336.159C169.659 337.593 169.738 339.323 169.699 340.817C169.607 344.256 169.757 347.689 169.797 351.128C169.803 351.554 170.458 351.554 170.458 351.128Z" fill="black"/>
<path d="M160.003 289.483C163.512 290.092 167.067 290 170.615 290.158C174.72 290.341 178.759 291.107 182.753 292.038C183.165 292.136 183.335 291.5 182.929 291.409C179.479 290.603 176.009 289.948 172.474 289.627C168.376 289.26 164.252 289.561 160.18 288.854C159.761 288.782 159.584 289.411 160.003 289.483Z" fill="black"/>
<path d="M140.854 233.766C139.604 242.571 138.333 251.369 137.063 260.174C136.481 264.209 135.551 268.31 135.302 272.378C135.171 274.54 135.086 276.695 134.883 278.85C134.713 280.698 134.654 282.539 135.08 284.36C135.178 284.773 135.806 284.596 135.708 284.183C135.257 282.237 135.401 280.292 135.584 278.32C135.767 276.341 135.852 274.363 135.95 272.378C136.062 270.157 136.579 267.937 136.913 265.735C137.247 263.534 137.554 261.327 137.869 259.125C139.06 250.727 140.291 242.342 141.482 233.943C141.541 233.524 140.913 233.347 140.854 233.766Z" fill="black"/>
<path d="M154.229 234.959C148.579 233.124 142.556 232.633 137.05 230.314C136.664 230.15 136.494 230.786 136.874 230.943C142.373 233.262 148.396 233.753 154.052 235.588C154.451 235.725 154.628 235.09 154.229 234.959Z" fill="black"/>
<path fill-rule="evenodd" clip-rule="evenodd" d="M185.293 205.643C188.704 209.659 235.257 225.637 250.733 229.875C253.516 237.776 260.481 235.948 268.383 235.398C276.285 234.847 288.023 227.864 288.023 227.864C288.023 227.864 268.449 222.603 261.352 220.468C254.255 218.332 218.183 200.776 199.879 186.258C196.834 187.831 185.293 205.643 185.293 205.643Z" fill="#B06043"/>
<path d="M255.394 230.628C256.475 232.011 257.227 233.157 258.962 233.701C261.227 234.408 263.722 234.664 266.085 234.841C266.504 234.874 266.504 234.218 266.085 234.186C264.049 234.035 262 233.773 260.01 233.288C259.034 233.052 258.131 232.83 257.385 232.109C256.795 231.539 256.357 230.812 255.853 230.163C255.597 229.829 255.133 230.301 255.394 230.628Z" fill="black"/>
<path d="M266.347 215.358C268.612 215.011 271.656 214.421 275.152 215.548C282.203 217.815 284.324 219.282 286.21 219.728C290.085 220.645 290.694 222.165 289.693 223.213C292.567 225.827 289.778 228.001 286.805 227.379C285.673 228.165 281.234 227.294 279.931 225.899C278.884 227.556 276.278 226.075 272.796 224.765C269.313 223.462 263.67 221.208 262.976 220.776C262.269 220.337 261.562 216.668 266.347 215.358Z" fill="#FF9B7D"/>
<path d="M257.378 218.758C258.426 217.71 266.923 212.934 268.147 215.116C265.012 215.81 262.969 217.861 263.624 221.084C260.2 220.691 257.378 218.758 257.378 218.758Z" fill="#D0D4D6"/>
<path d="M269.915 219.859C271.519 220.415 273.116 220.972 274.72 221.529C276.508 222.151 280.586 223.344 279.382 226.082C279.211 226.462 279.774 226.796 279.945 226.41C280.645 224.818 279.879 223.468 278.57 222.505C277.509 221.726 276.121 221.319 274.891 220.894C273.287 220.337 271.689 219.78 270.085 219.223C269.692 219.086 269.522 219.714 269.915 219.859Z" fill="black"/>
<path d="M274.714 218.778C277.051 219.983 279.355 221.025 281.522 222.551C282.969 223.573 288.455 224.34 286.89 226.835C286.668 227.196 287.231 227.523 287.454 227.163C288.874 224.909 286.733 224.032 284.907 223.298C283.244 222.63 281.83 221.916 280.318 220.953C278.629 219.872 276.822 219.125 275.048 218.208C274.668 218.018 274.334 218.581 274.714 218.778Z" fill="black"/>
<path d="M290.962 226.089C291.8 223.606 289.411 222.813 287.447 222.309C285.738 221.876 284.311 220.861 282.818 219.963C281.319 219.059 279.683 218.365 278.105 217.612C277.725 217.435 277.391 217.998 277.777 218.175C280.088 219.269 282.295 220.429 284.488 221.745C286.138 222.734 291.224 223.272 290.34 225.912C290.196 226.311 290.831 226.488 290.962 226.089Z" fill="black"/>
<path d="M255.918 218.378C256.311 218.116 260.743 214.86 262.923 214.369C264.147 214.094 264.71 214.978 264.71 214.978C263.277 215.587 260.612 216.976 260.318 220.206C258.399 219.551 255.918 218.378 255.918 218.378Z" fill="#215E75"/>
<path d="M145.757 142.072C144.363 131.158 151.446 115.999 164.212 115.069C176.978 114.138 190.504 118.672 192.592 125.406C194.681 132.14 195.145 139.576 191.898 145.616C188.651 151.656 192.016 159.321 180.638 168.617C175.126 173.111 150.628 158.797 145.757 142.072Z" fill="#FFBDA8"/>
<path d="M149.967 117.525C152.173 114.872 155.237 112.638 158.759 112.258C160.514 112.068 162.209 112.612 163.964 112.54C167.224 112.415 169.908 111.976 173.26 112.016C179.964 112.101 183.722 113.326 188.232 115.416C191.276 116.824 193.705 118.626 195.807 121.168C196.815 122.386 197.188 124.607 197.247 126.192C197.365 129.284 194.203 129.664 191.892 129.651C188.245 129.625 183.866 128.197 180.723 126.376C178.87 125.308 176.972 124.063 175.008 123.231C172.985 122.373 171.198 121.62 169.253 122.792C166.661 124.358 166.432 126.821 165.6 129.402C165.083 131.001 164.808 133.182 163.8 134.525C162.929 135.685 161.319 136.248 161.155 137.82C160.992 139.392 162.137 143.782 159.82 144.247C157.312 144.751 156.834 140.578 155.479 139.412C154.196 138.312 152.703 138.312 151.329 139.281C148.37 141.371 149.41 146.251 149.41 146.251C149.41 146.251 149.234 150.261 144.016 139.281C143.669 138.56 144.042 136.746 144.068 135.934C144.108 134.774 144.173 133.621 144.284 132.468C144.507 130.208 144.887 127.954 145.554 125.786C146.425 122.949 147.937 119.969 149.967 117.525Z" fill="#613D32"/>
<path d="M176.946 141.096C175.512 140.29 173.371 143.375 175.152 144.476C177.103 145.681 178.412 141.915 176.946 141.096Z" fill="black"/>
<path d="M189.083 145.518C187.872 144.823 186.006 147.568 187.512 148.525C189.162 149.573 190.321 146.232 189.083 145.518Z" fill="black"/>
<path d="M185.07 139.419C184.245 140.847 183.001 143.559 183.977 145.157C184.73 146.389 185.411 147.581 186.046 148.878C186.458 149.723 186.687 150.601 186.556 151.545C186.334 153.156 184.252 153.228 183.106 153.215C182.687 153.209 182.687 153.864 183.106 153.87C184.389 153.883 185.43 153.903 186.452 152.947C187.198 152.246 187.407 151.224 187.191 150.228C186.877 148.813 186.15 147.372 185.398 146.147C184.651 144.928 184.128 144.194 184.481 142.688C184.71 141.705 185.136 140.604 185.633 139.74C185.849 139.386 185.28 139.052 185.07 139.419Z" fill="black"/>
<path d="M177.554 151.761C177.515 153.936 177.384 155.894 179.067 157.519C180.442 158.849 182.445 158.731 183.957 157.801C184.317 157.578 183.99 157.015 183.63 157.237C181.96 158.259 180.055 157.952 178.883 156.314C177.921 154.964 178.176 153.307 178.209 151.761C178.216 151.342 177.561 151.342 177.554 151.761Z" fill="black"/>
<path d="M172.625 133.883C174.733 134.296 177.162 133.516 179.283 133.405C180.252 133.352 181.542 133.798 182.314 133.077C182.942 132.488 183.047 131.394 182.524 130.712C181.816 129.795 180.324 129.527 179.257 129.448C177.81 129.343 176.265 129.605 175.001 130.339C174.648 130.549 171.846 133.732 172.625 133.883Z" fill="#613D32"/>
<path d="M190.026 135.973C190.111 136.189 190.347 136.399 190.641 136.733C191.938 138.213 192.959 139.989 193.483 141.895C193.705 142.701 194.831 140.663 194.857 140.532C195.126 139.399 194.956 138.069 194.648 136.969C194.386 136.038 193.908 134.754 192.92 134.361C192.121 134.047 191.1 134.46 190.517 135.016C190.046 135.468 189.934 135.724 190.026 135.973Z" fill="#613D32"/>
<path fill-rule="evenodd" clip-rule="evenodd" d="M69.5542 122.615C71.1778 118.665 73.5019 110.306 72.5722 100.545C71.6426 90.7905 60.0354 78.016 73.5019 60.5903C86.9684 43.1712 119.649 46.0208 128.055 65.7001C133.509 78.4746 123.643 84.5146 128.284 89.6244C132.926 94.7342 136.18 95.8937 128.055 98.2193C125.266 98.4486 125.967 101.934 123.414 106.814C120.86 111.695 116.219 117.499 107.63 117.034C99.0339 116.575 69.5542 122.615 69.5542 122.615Z" fill="#B06043"/>
<path fill-rule="evenodd" clip-rule="evenodd" d="M52.2645 83.5909C49.2465 88.4715 51.6819 105.078 61.5477 96.9485C57.3709 108.681 69.2073 109.376 73.9667 103.801C71.7605 113.444 80.9324 113.208 84.8735 104.266C86.0322 102.871 86.844 109.494 90.6803 107.515C94.5101 105.543 95.4398 99.6213 95.7867 99.3854C96.8604 100.709 98.5691 103.041 100.54 102.117C101.554 101.646 102.425 100.152 103.014 99.261C103.256 98.9007 104.553 95.7103 103.931 95.4483C105.273 96.0117 106.019 97.4594 107.859 96.6275C109.639 95.8151 110.045 92.8737 110.065 91.1639C110.091 88.8711 109.456 86.6699 108.703 84.5146C108.114 82.8376 107.453 79.8045 107.977 78.0488C108.245 77.1447 110.209 75.7428 110.065 74.7602C110.648 78.8284 111.224 80.2172 114.477 79.0576C117.004 78.1536 119.964 76.2407 122.288 65.7329C126.216 65.3791 131.263 64.534 134.294 61.7826C135.46 60.7213 136.861 58.8019 136.514 57.0855C136.311 56.0832 133.901 53.4694 132.723 54.7337C133.947 53.4235 137.011 52.8863 137.345 50.8359C137.771 48.2679 134.124 47.639 132.252 47.2918C136.802 44.6517 131.198 40.0005 128.206 39.6795C126.569 39.5026 124.559 39.7253 123.453 40.2887C124.232 39.1816 126.608 36.3647 123.944 34.6549C122.831 33.9408 119.597 34.1635 118.805 35.3296C120.73 32.4603 121.646 30.5539 117.64 29.0865C113.567 27.5929 107.721 28.5755 104.671 31.8052C106.248 28.8245 106.327 24.6908 102.255 23.8326C98.2025 22.9875 92.5331 27.1277 89.79 29.7613C90.8964 28.2873 91.61 25.3524 89.1615 24.4877C86.5821 23.5771 83.4397 25.7979 81.9013 27.547C79.6885 30.0692 77.9536 33.1285 76.389 36.0699C75.132 38.4217 75.2237 39.8498 72.9585 38.3103C71.0993 37.046 68.8079 35.8275 66.2024 35.9651C64.055 36.0764 61.1287 37.1049 59.9568 39.0506C58.4053 41.6251 60.5657 44.8417 62.3726 46.6498C55.7539 48.0451 48.4413 53.9673 48.9061 58.3826C49.3709 62.798 53.4298 64.5406 53.4298 64.5406C46.4576 66.8662 44.9519 74.6554 45.0697 78.717C45.181 82.7786 49.5935 85.4514 52.2645 83.5909Z" fill="#733924"/>
<path d="M29.2792 350.257C31.7146 343.987 31.7146 329.005 27.5378 317.501C23.361 306.004 24.4019 283.705 44.9454 254.088C73.8489 250.602 121.895 253.74 121.895 253.74C127.119 279.525 132.343 292.47 132.343 316.46C132.343 340.45 130.602 352.694 130.602 352.694L29.2792 350.257Z" fill="#00359E"/>
<path d="M52.7948 252.764C51.3218 255.87 50.2023 259.171 49.0894 262.414C47.1123 268.199 45.4167 274.081 44.0419 280.043C42.5493 286.502 41.456 293.099 41.2269 299.735C41.0305 305.29 41.4756 311.127 43.8455 316.231C46.2481 321.406 49.6066 326.162 53.8095 330.034C54.1958 330.394 54.5951 330.741 55.0076 331.069C55.4266 331.409 55.0665 330.813 55.0927 331.114C55.1909 332.208 55.2891 333.303 55.3873 334.39C55.983 341.072 56.5788 347.748 57.1745 354.43C57.2138 354.849 57.8685 354.849 57.8292 354.43C57.1418 346.732 56.4609 339.035 55.7735 331.337C55.7015 330.531 55.0534 330.263 54.4446 329.719C52.1205 327.636 50.091 325.225 48.2907 322.677C44.258 316.951 42.1958 310.872 41.8946 303.908C41.4494 293.479 43.767 282.919 46.5297 272.928C48.3758 266.259 50.3922 259.361 53.3709 253.085C53.5411 252.718 52.9716 252.384 52.7948 252.764Z" fill="black"/>
<path d="M55.4855 331.298C65.6983 329.595 75.9111 327.891 86.1239 326.188C86.5429 326.116 86.3596 325.487 85.9471 325.559C75.7343 327.262 65.5215 328.966 55.3087 330.669C54.8963 330.735 55.073 331.363 55.4855 331.298Z" fill="black"/>
<path d="M54.6147 274.448C52.2055 281.681 50.5492 289.247 50.667 296.899C50.7456 301.831 51.6883 306.784 53.9404 311.199C56.4477 316.126 60.6965 319.807 65.672 322.12C67.0664 322.768 68.5133 323.286 69.9797 323.738C71.2236 324.118 73.037 322.487 74.091 321.878C77.4036 319.952 80.6704 317.94 83.8848 315.857C85.6393 314.724 87.7735 313.597 89.2073 312.044C89.8947 311.304 89.803 309.267 89.8947 308.33C90.9029 298.183 90.8636 287.884 90.9814 277.698C90.9945 276.8 91.0011 275.903 91.0076 274.998C91.0076 274.802 90.857 274.691 90.6803 274.671C78.9094 273.341 66.7064 272.817 54.9289 274.206C54.5165 274.252 54.5099 274.913 54.9289 274.861C66.7064 273.472 78.9094 273.996 90.6803 275.326C90.569 275.215 90.4642 275.11 90.3529 274.998C90.2875 283.633 90.1304 292.28 89.731 300.901C89.6197 303.305 89.4822 305.703 89.2662 308.094C89.1549 309.319 89.2727 311.18 88.2645 312.025C86.0387 313.879 83.4528 315.379 81.0108 316.925C77.7441 318.989 74.4314 320.974 71.0599 322.86C69.7637 323.581 67.2432 322.113 66.0124 321.557C64.546 320.901 63.1515 320.096 61.8291 319.192C59.4265 317.554 57.3839 315.425 55.7734 313.014C52.8405 308.625 51.6425 303.319 51.3806 298.11C50.9813 290.203 52.7227 282.277 55.2039 274.815C55.2235 274.75 55.2432 274.691 55.2694 274.625C55.3806 274.219 54.7522 274.049 54.6147 274.448Z" fill="black"/>
<path d="M32.4152 276.486C34.5821 276.564 36.7491 276.643 38.916 276.715C38.8047 276.603 38.7 276.499 38.5887 276.387C37.659 283.888 36.7752 291.389 35.9635 298.903C35.4856 303.299 34.9946 307.701 34.7196 312.11C34.569 314.534 34.5036 316.689 33.1157 318.825C32.1271 320.345 30.6083 321.714 29.0044 322.565C28.6312 322.762 28.9651 323.332 29.3317 323.129C33.0829 321.144 35.1779 317.501 35.3088 313.335C35.4463 309.097 35.9831 304.858 36.4283 300.646C37.2859 292.549 38.2417 284.465 39.2433 276.381C39.263 276.197 39.0797 276.06 38.916 276.053C36.7491 275.975 34.5821 275.896 32.4152 275.824C31.9962 275.817 31.9962 276.472 32.4152 276.486Z" fill="black"/>
<path d="M101.738 252.555C102.955 259.518 103.715 266.587 104.513 273.603C106.039 287.059 107.191 300.574 107.689 314.115C108.147 326.765 108.297 339.775 105.921 352.261C105.842 352.674 106.471 352.851 106.549 352.438C108.965 339.742 108.795 326.542 108.324 313.682C107.833 300.174 106.654 286.692 105.129 273.262C104.337 266.299 103.577 259.289 102.373 252.378C102.301 251.965 101.666 252.142 101.738 252.555Z" fill="black"/>
<path d="M104.756 252.784C105.849 259.754 107.237 266.672 108.258 273.656C110.307 287.655 111.774 301.773 112.166 315.923C112.494 327.878 112.153 340.109 109.397 351.796C109.299 352.209 109.934 352.379 110.026 351.973C113.273 338.177 113.266 323.673 112.572 309.594C111.911 296.145 110.333 282.742 108.278 269.443C107.407 263.816 106.261 258.234 105.384 252.614C105.325 252.194 104.697 252.371 104.756 252.784Z" fill="black"/>
<path d="M110.412 286.705C118.955 286.817 124.33 278.497 125.803 270.878C125.882 270.465 125.273 270.288 125.175 270.701C125.175 270.714 125.168 270.727 125.168 270.74C125.09 271.153 125.718 271.33 125.797 270.917C125.797 270.904 125.803 270.891 125.803 270.878C125.594 270.819 125.384 270.76 125.175 270.701C123.761 278.025 118.661 286.155 110.419 286.05C109.993 286.05 109.993 286.705 110.412 286.705Z" fill="black"/>
<path d="M111.021 290.878C113.888 291.402 117.024 290.42 119.571 289.168C123.59 287.19 126.438 283.593 127.63 279.296C127.741 278.89 127.113 278.713 127.001 279.119C125.869 283.207 123.263 286.423 119.545 288.441C117.155 289.738 113.941 290.747 111.191 290.243C110.785 290.171 110.608 290.8 111.021 290.878Z" fill="black"/>
<path d="M44.9519 254.094C44.4871 251.074 47.0403 239.924 47.7408 239.695C48.4347 239.459 94.8637 234.12 121.096 239.695C122.955 241.32 121.908 253.747 121.908 253.747C121.908 253.747 86.0388 251.539 44.9519 254.094Z" fill="#FEFBE8"/>
<path d="M47.7342 239.689C39.3741 235.738 35.1973 233.419 38.2154 219.944C41.2334 206.468 51.6818 143.985 71.1778 119.366C80.9258 113.555 101.122 106.592 112.265 109.612C123.407 112.632 134.085 124.247 140.815 132.841C147.545 141.436 157.757 149.101 167.977 154.676C178.19 160.251 196.298 170.241 191.656 180.926C187.015 189.75 178.89 201.601 178.89 201.601C164.494 205.78 134.785 192.541 122.019 180.697C127.59 210.661 137.574 234.821 121.09 239.695C116.677 239.223 79.0731 237.134 47.7342 239.689Z" fill="#FEFBE8"/>
<path d="M68.1663 160.945C74.2023 140.021 79.0861 123.257 82.3529 114.092C80.8013 114.689 79.3087 115.311 77.8881 115.946C74.1172 124.705 62.5165 150.293 59.7473 165.767C57.2203 179.904 50.4641 205.839 47.2104 218.378C43.9567 230.923 49.5868 234.349 53.5345 238.758H60.5001C54.235 228.768 54.6998 219.014 57.9469 203.684C61.2006 188.355 61.6654 183.481 68.1663 160.945Z" fill="#FAC515"/>
<path d="M93.0045 146.31C91.8458 156.995 86.5037 192.305 83.7214 204.85C80.939 217.395 79.3089 234.815 79.3089 238.3L72.5462 238.503C70.4578 231.067 75.3613 208.335 78.1501 191.84C80.9325 175.351 87.669 139.576 88.8278 134.466L93.0045 146.31Z" fill="#FAC515"/>
<path d="M109.018 169.075C109.712 178.364 117.378 227.379 105.535 239.223L99.4988 238.758C99.4988 238.758 102.052 235.044 103.676 222.269C105.299 209.495 103.676 169.77 103.676 163.5L109.018 169.075Z" fill="#FAC515"/>
<path d="M178.89 201.594C180.514 203.684 183.296 206.639 186.871 206.888C188.422 206.999 200.01 188.348 200.71 186.494C201.404 184.634 195.198 179.524 191.977 179.262" fill="#FEFBE8"/>
<path d="M122.949 85.3335C120.88 85.137 119.296 89.5 121.79 90.214C123.414 90.6792 125.384 85.5694 122.949 85.3335Z" fill="black"/>
<path d="M120.625 77.2037C122.229 75.4873 124.618 74.8977 126.89 74.8584C127.309 74.8519 127.309 74.1968 126.89 74.2033C124.448 74.2426 121.875 74.8977 120.16 76.7386C119.872 77.053 120.337 77.5116 120.625 77.2037Z" fill="black"/>
<path d="M119.257 97.7608C119.335 100.794 121.247 104.227 124.572 104.358C124.998 104.377 124.991 103.722 124.572 103.703C121.613 103.578 119.977 100.414 119.911 97.7608C119.898 97.3415 119.243 97.3415 119.257 97.7608Z" fill="black"/>
<path d="M98.9422 68.8905C98.4905 69.9648 98.2287 71.6681 99.0928 72.6442C99.9177 73.581 101.09 73.7317 102.281 73.8365C102.176 73.6989 102.072 73.5613 101.967 73.4238C101.561 75.6773 102.432 77.2299 104.651 77.8981C106.89 78.5729 108.932 76.9417 110.288 75.3694C110.563 75.0484 110.104 74.5833 109.823 74.9043C108.9 75.9786 107.918 76.863 106.523 77.2626C105.679 77.505 104.788 77.3085 104.009 76.9744C102.53 76.339 102.347 74.9501 102.589 73.5941C102.628 73.3713 102.497 73.201 102.274 73.1814C101.384 73.1028 100.507 73.0241 99.7802 72.4411C98.8178 71.6681 99.1714 70.0107 99.5707 69.0673C99.7344 68.6743 99.0994 68.5039 98.9422 68.8905Z" fill="black"/>
<path d="M183.767 193.465C177.967 188.119 155.447 183.71 133.626 168.839C111.806 153.975 92.7687 125.635 89.7507 119.359C89.7507 119.359 88.3301 124.934 89.0568 128.184C92.7687 137.938 102.288 150.948 119.695 167.208C137.103 183.468 168.442 198.568 181.443 197.172C181.443 197.172 181.568 197.218 181.771 197.271C182.445 196.242 183.204 195.076 184.01 193.812C183.931 193.707 183.859 193.589 183.767 193.465Z" fill="#FAC515"/>
<path d="M191.918 180.232C188.821 176.137 181.699 170.87 169.843 165.597C157.306 160.022 144.54 150.732 135.486 138.652C126.432 126.572 109.024 112.867 99.7343 109.618C99.6296 109.546 99.5248 109.487 99.4201 109.428C97.9733 109.644 96.4937 109.919 95.0142 110.247C93.9732 111.21 93.3513 112.376 93.3513 112.376C97.5281 116.091 127.361 141.443 142.68 155.377C158 169.318 168.448 171.171 176.802 176.281C183.414 180.323 187.394 184.503 188.776 186.075C189.81 184.319 190.792 182.57 191.656 180.926C191.761 180.69 191.833 180.461 191.918 180.232Z" fill="#FAC515"/>
<path d="M47.7341 240.016C50.8111 239.63 53.9535 239.571 57.05 239.433C63.1253 239.164 69.2137 239.001 75.2956 238.902C90.5559 238.653 105.875 238.771 121.09 240.016C121.509 240.049 121.509 239.394 121.09 239.361C105.869 238.116 90.5559 238.011 75.2956 238.247C69.2137 238.339 63.1319 238.509 57.05 238.778C53.9535 238.916 50.8111 238.974 47.7341 239.361C47.3217 239.413 47.3217 240.068 47.7341 240.016Z" fill="black"/>
<path d="M95.3219 109.612C89.6984 114.662 88.0682 122.936 88.461 130.169C89.1419 142.806 95.9046 154.421 103.846 163.9C109.149 170.235 115.302 175.823 121.784 180.926C122.111 181.181 122.576 180.723 122.248 180.461C109.397 170.353 97.1616 157.781 91.5969 142.065C88.533 133.425 87.6558 123.1 92.1403 114.774C93.0895 113.018 94.3007 111.407 95.7868 110.077C96.101 109.788 95.6362 109.33 95.3219 109.612Z" fill="black"/>
<path d="M191.905 179.092C191.204 181.922 189.286 184.588 187.807 187.071C186.412 189.416 184.959 191.735 183.492 194.035C181.902 196.524 180.278 198.994 178.609 201.431C178.366 201.778 178.936 202.105 179.172 201.758C180.926 199.197 182.622 196.596 184.298 193.982C185.777 191.67 187.224 189.331 188.625 186.966C190.065 184.549 191.852 182.013 192.533 179.262C192.638 178.856 192.01 178.679 191.905 179.092Z" fill="black"/>
<path d="M263.794 251.742C261.358 252.614 263.008 254.533 264.488 255.313C265.967 256.099 267.277 255.228 268.579 256.623C269.889 258.018 273.804 259.152 276.933 258.365C280.069 257.579 281.11 256.97 283.984 257.317C286.858 257.664 288.422 257.664 289.987 256.531C293.555 259.577 294.773 259.407 296.252 258.097C297.732 256.793 294.949 253.308 293.116 251.303C291.29 249.299 289.463 244.248 285.195 244.425C280.933 244.595 276.75 246.777 274.838 247.209C272.92 247.648 268.92 248.257 267.964 248.69C267.008 249.122 266.831 249.823 266.831 249.823C264.926 249.561 262.746 249.391 263.794 251.742Z" fill="#FF9B7D"/>
<path d="M266.602 249.62C266.609 250.72 267.106 251.566 267.859 252.352C268.717 253.243 270.196 253.066 271.25 253.478C271.643 253.629 271.813 253 271.427 252.85C270.701 252.568 269.876 252.509 269.116 252.299C267.977 251.985 267.264 250.74 267.257 249.62C267.25 249.201 266.596 249.201 266.602 249.62Z" fill="black"/>
<path d="M263.512 251.644C264.069 252.62 264.789 253.328 265.856 253.714C266.727 254.022 267.578 254.147 268.403 254.586C268.9 254.848 269.332 255.005 269.889 255.057C270.308 255.096 270.308 254.441 269.889 254.402C268.848 254.297 267.846 253.55 266.818 253.302C265.561 253 264.723 252.443 264.082 251.317C263.866 250.95 263.303 251.277 263.512 251.644Z" fill="black"/>
<path d="M277.372 246.135C276.075 247.393 274.118 248.113 272.39 248.487C271.303 248.722 270.773 249.502 271.048 250.557C271.807 253.439 276.527 252.974 278.615 252.483C279.028 252.384 278.851 251.756 278.439 251.854C277.018 252.188 275.722 252.24 274.282 252.037C273.581 251.939 272.828 251.769 272.278 251.297C271.408 250.55 271.84 249.279 272.979 249.03C274.674 248.657 276.566 247.818 277.823 246.6C278.138 246.305 277.679 245.84 277.372 246.135Z" fill="black"/>
<path d="M267.683 256.223C268.547 256.21 269.11 256.02 269.791 255.49C270.995 254.54 272.887 255.123 274.301 254.946C276.881 254.625 278.602 253.249 280.854 252.116C281.234 251.926 280.9 251.362 280.527 251.552C278.085 252.784 276.259 254.212 273.398 254.376C272.494 254.428 271.486 254.12 270.596 254.343C269.529 254.605 268.867 255.549 267.696 255.568C267.257 255.575 267.257 256.23 267.683 256.223Z" fill="black"/>
<path d="M287.82 253.976C288.023 254.232 288.108 254.54 288.311 254.795C288.56 255.097 288.789 255.418 289.038 255.719C289.502 256.289 289.98 256.872 290.491 257.402C290.786 257.71 291.244 257.245 290.956 256.937C290.439 256.4 290.02 255.791 289.503 255.254C288.998 254.73 288.723 254.068 288.285 253.511C288.023 253.184 287.565 253.649 287.82 253.976Z" fill="black"/>
<path d="M369.935 136.497C365.522 135.449 362.622 129.356 363.087 124.24C363.552 119.13 368.894 113.902 375.159 111C381.424 108.098 390.943 101.822 404.521 108.328C418.099 114.833 416.01 130.162 423.094 137.014C430.177 143.867 444.567 145.609 451.179 158.967C457.798 172.324 449.209 179.642 459.303 188.001C469.398 196.36 476.246 208.794 461.163 219.937C446.073 231.087 429.595 224.818 429.595 224.818C429.595 224.818 387.297 209.069 378.989 196.131C371.676 184.752 374.465 180.919 376.318 177.434C378.177 173.949 375.853 170.7 373.647 167.097C371.441 163.494 373.064 157.689 378.406 153.975" fill="#734338"/>
<path d="M393.85 176.045C394.197 171.866 390.367 160.369 390.367 160.369C384.331 162.026 376.089 154.447 373.13 149.396C370.17 144.345 371.611 141.07 369.994 137.375C367.421 131.505 364.076 120.303 380.789 114.034C399.408 107.044 404.468 127.62 408.645 142.085C412.822 156.543 412.298 164.037 412.298 164.037L393.85 176.045Z" fill="#FFAB8F"/>
<path d="M386.419 248.283C386.648 251.998 387.349 257.809 387.349 257.809C386.655 267.563 380.154 317.043 383.866 342.592C402.439 344.911 466.505 343.522 466.505 343.522C463.487 323.777 460.698 293.348 451.415 272.909C442.131 252.47 438.649 246.659 438.649 246.659L437.254 238.765C437.254 238.765 405.915 239.459 386.419 248.283Z" fill="#0C1C24"/>
<path d="M385.608 133.071C384.089 132.927 383.775 136.051 385.667 136.497C387.735 136.982 387.408 133.248 385.608 133.071Z" fill="black"/>
<path d="M374.177 136.903C372.658 136.759 372.344 139.884 374.236 140.329C376.305 140.814 375.971 137.08 374.177 136.903Z" fill="black"/>
<path d="M263.735 235.044C261.162 236.878 259.669 238.411 261.529 239.459C263.388 240.507 265.012 239.341 265.012 239.341C266.406 240.848 268.959 240.272 271.048 238.758C273.948 240.036 275.807 239.571 277.895 238.175C279.984 236.78 283.467 234.107 287.525 234.69C291.591 235.273 297.509 237.127 302.269 234.572C307.028 232.017 312.364 229.927 319.565 229.81C326.76 229.692 355.781 226.095 367.382 219.354C367.964 212.731 352.409 202.164 352.409 202.164C344.75 204.837 319.912 218.424 309.116 220.861C298.321 223.298 283.002 226.207 274.995 229.574C266.989 232.954 264.547 234.467 263.735 235.044Z" fill="#FFAB8F"/>
<path d="M271.656 238.562C270.969 236.492 274.583 235.358 275.944 234.788C277.902 233.963 279.571 232.587 281.581 231.88C281.974 231.742 281.804 231.107 281.404 231.251C278.858 232.142 276.566 233.766 274.098 234.88C272.606 235.555 270.373 236.793 271.015 238.739C271.152 239.132 271.787 238.961 271.656 238.562Z" fill="black"/>
<path d="M265.529 239.237C264.527 237.304 267.473 236.433 268.638 235.941C269.705 235.496 270.713 234.946 271.735 234.395C274.164 233.092 276.042 231.362 278.792 230.655C279.198 230.55 279.028 229.914 278.615 230.026C275.178 230.917 272.52 233.308 269.411 234.887C267.722 235.745 263.512 236.773 264.959 239.564C265.155 239.944 265.725 239.61 265.529 239.237Z" fill="black"/>
<path d="M378.406 114.138C378.524 117.741 379.218 121.109 383.63 122.504C388.043 123.899 392.449 122.504 392.449 129.356C392.449 136.209 392.914 142.832 398.249 144.804C403.591 146.775 404.285 146.428 404.167 151.774C404.05 157.113 405.994 162.721 414.701 163.068C423.408 163.415 412.292 141.902 409.621 133.307C406.963 124.705 399.068 102.412 378.406 114.138Z" fill="#734338"/>
<path fill-rule="evenodd" clip-rule="evenodd" d="M351.539 202.702C350.144 201.306 353.974 197.821 360.94 195.731C361.116 190.68 369.994 186.848 375.041 185.8C380.089 184.752 407.598 164.372 412.992 162.105C418.387 159.838 430.053 159.838 435.971 169.77C441.889 179.701 441.542 198.692 438.93 207.746C436.318 216.806 442.59 225.165 443.454 231.094C444.325 237.016 438.406 239.977 436.141 239.806C433.876 239.63 402.02 241.896 387.565 249.214C383.735 250.609 375.729 243.639 376.423 232.142C377.117 220.645 375.205 216.812 375.205 216.812C375.205 216.812 368.94 221.863 363.015 221.339C364.599 218.201 357.981 205.309 351.539 202.702Z" fill="#EAAA08"/>
<path d="M379.591 136.785C379.775 138.135 379.107 138.757 378.302 139.7C377.856 140.218 377.85 140.925 378.027 141.541C378.347 142.655 380.514 143.474 381.542 143.441C381.961 143.428 381.968 142.773 381.542 142.786C380.796 142.812 380.194 142.406 379.558 142.078C378.282 141.41 378.465 140.388 379.434 139.478C380.266 138.698 380.396 137.892 380.246 136.785C380.193 136.372 379.532 136.372 379.591 136.785Z" fill="black"/>
<path d="M381.627 126.592C383.31 125.943 384.711 126.657 386.19 127.43C386.563 127.627 386.897 127.057 386.518 126.867C384.881 126.015 383.316 125.249 381.45 125.963C381.064 126.114 381.234 126.742 381.627 126.592Z" fill="black"/>
<path d="M369.044 133.012C369.012 131.695 370.269 130.359 371.349 129.808C371.729 129.618 371.395 129.055 371.022 129.245C369.732 129.9 368.351 131.466 368.396 133.012C368.403 133.438 369.058 133.438 369.044 133.012Z" fill="black"/>
<path d="M379.853 146.422C381.084 145.714 382.524 145.629 383.879 145.282C385.293 144.915 386.406 143.828 387.788 143.382C387.65 143.277 387.513 143.172 387.375 143.068C387.277 145.177 387.702 150.496 384.272 149.933C382.465 149.638 381.45 146.998 380.03 145.976C379.689 145.727 379.362 146.297 379.702 146.54C381.378 147.745 382.976 151.656 385.666 150.496C388.337 149.343 387.925 145.433 388.03 143.061C388.036 142.851 387.814 142.681 387.617 142.747C386.236 143.192 385.077 144.142 383.709 144.646C382.315 145.164 380.848 145.098 379.532 145.858C379.152 146.061 379.486 146.631 379.853 146.422Z" fill="black"/>
<path d="M384.121 150.116C384.626 148.688 385.941 147.542 387.159 146.71C387.506 146.474 387.179 145.904 386.832 146.147C385.457 147.083 384.063 148.335 383.486 149.94C383.349 150.339 383.984 150.51 384.121 150.116Z" fill="black"/>
<path d="M390.105 160.795C395.48 159.353 400.063 154.768 401.765 149.474C401.896 149.068 401.261 148.898 401.136 149.298C399.513 154.355 395.061 158.783 389.935 160.159C389.523 160.277 389.693 160.906 390.105 160.795Z" fill="black"/>
<path d="M358.884 196.799C360.757 196.517 362.544 197.769 364.108 198.627C365.588 199.433 366.878 200.396 368.023 201.634C370.38 204.169 372.351 207.523 372.632 211.002C372.665 211.421 373.32 211.421 373.287 211.002C372.979 207.235 370.93 203.966 368.488 201.169C367.067 199.537 365.261 198.489 363.369 197.487C361.889 196.707 360.429 195.908 358.707 196.17C358.295 196.229 358.472 196.865 358.884 196.799Z" fill="black"/>
<path d="M360.351 196.19C363.179 194.552 367.159 194.572 370.315 195.063C370.727 195.129 370.904 194.493 370.491 194.434C367.152 193.917 363.035 193.884 360.023 195.626C359.657 195.836 359.984 196.399 360.351 196.19Z" fill="black"/>
<path d="M368.593 220.926C369.968 220.324 371.29 219.662 372.54 218.824C373.666 218.064 374.622 217.114 375.807 216.426C377.241 215.6 378.937 215.194 380.501 214.683C382.144 214.146 383.794 213.622 385.437 213.091C391.67 211.093 397.745 209.108 403.559 206.069C408.94 203.252 414.184 200.337 418.838 196.393C421.11 194.467 423.199 192.233 425.005 189.862C427.028 187.208 428.456 184.201 430.112 181.319C430.321 180.952 429.758 180.625 429.549 180.991C428.102 183.52 426.852 186.199 425.163 188.584C423.244 191.29 420.888 193.759 418.38 195.934C413.673 200.029 408.174 202.924 402.688 205.8C396.743 208.912 390.4 210.825 384.036 212.869C381.202 213.779 378.131 214.487 375.486 215.869C374.262 216.511 373.319 217.467 372.213 218.267C371.002 219.145 369.627 219.773 368.265 220.37C367.879 220.527 368.213 221.09 368.593 220.926Z" fill="black"/>
<path d="M429.66 186.914C426.852 191.414 424.325 195.823 419.912 198.994C419.572 199.236 419.899 199.806 420.239 199.557C424.757 196.314 427.343 191.853 430.223 187.248C430.452 186.881 429.883 186.553 429.66 186.914Z" fill="black"/>
<path d="M389.405 257.311C391.225 256.695 392.933 255.955 394.793 255.45C396.874 254.887 398.845 253.963 400.868 253.236C404.783 251.834 408.881 251.015 412.953 250.236C417.254 249.417 421.509 248.519 425.876 248.12C430.053 247.74 434.236 246.96 438.426 246.803C438.845 246.79 438.852 246.135 438.426 246.148C434.413 246.298 430.459 247.117 426.452 247.419C422.243 247.74 418.144 248.591 414 249.377C409.667 250.196 405.437 251.153 401.215 252.43C399.172 253.053 397.234 253.996 395.205 254.644C394.243 254.952 393.241 255.149 392.279 255.457C391.231 255.784 390.262 256.328 389.221 256.682C388.835 256.813 389.005 257.448 389.405 257.311Z" fill="black"/>
<path d="M429.045 250.465C430.328 254.133 431.133 258.005 431.984 261.792C432.37 263.501 433.11 265.126 433.608 266.803C434.177 268.709 434.695 270.629 435.29 272.529C436.456 276.224 437.739 279.879 438.825 283.6C439.952 287.445 440.783 291.383 441.634 295.3C442.524 299.388 443.395 303.45 443.86 307.609C444.312 311.606 444.58 315.615 445.045 319.604C445.47 323.247 445.706 326.863 446.341 330.486C447.002 334.233 447.546 337.993 448.076 341.76C448.135 342.179 448.763 341.996 448.704 341.583C448.174 337.816 447.657 334.049 446.97 330.309C446.236 326.332 446.001 322.323 445.549 318.314C445.104 314.337 444.835 310.341 444.371 306.365C443.925 302.572 443.068 298.857 442.262 295.123C441.418 291.206 440.554 287.282 439.454 283.423C438.387 279.696 437.097 276.04 435.919 272.352C435.369 270.635 434.884 268.899 434.393 267.17C433.857 265.296 433.071 263.501 432.613 261.615C431.696 257.835 430.963 253.97 429.673 250.288C429.542 249.895 428.907 250.065 429.045 250.465Z" fill="black"/>
<path d="M433.922 257.665C436.613 264.248 438.249 271.179 440.246 277.986C442.321 285.041 444.082 292.07 445.457 299.303C446.897 306.863 448.187 314.455 449.163 322.087C449.582 325.382 449.817 328.691 450.452 331.96C451.127 335.451 452.587 339.041 452.711 342.592C452.724 343.011 453.379 343.018 453.366 342.592C453.261 339.533 452.109 336.473 451.447 333.499C450.609 329.732 450.302 325.913 449.824 322.087C448.888 314.606 447.611 307.171 446.217 299.768C444.868 292.575 443.428 285.329 441.058 278.392C438.688 271.474 437.333 264.288 434.557 257.488C434.4 257.108 433.765 257.271 433.922 257.665Z" fill="black"/>
<path d="M262.589 235.496C261.614 236.282 260.121 237.35 260.455 238.791C260.756 240.095 262.858 240.285 263.879 240.147C264.318 240.088 264.769 239.879 265.142 239.649C264.638 239.957 266.681 240.507 266.792 240.527C267.63 240.652 268.494 240.389 269.273 240.114C269.627 239.99 269.967 239.8 270.301 239.63C271.185 239.171 271.689 239.387 272.592 239.643C276.344 240.684 279.25 237.343 282.36 235.882C285.084 234.605 287.689 235.031 290.53 235.548C293.09 236.02 295.656 236.367 298.262 236.118C298.681 236.079 298.681 235.424 298.262 235.463C294.812 235.791 291.486 235.011 288.102 234.448C285.64 234.035 283.381 234.611 281.188 235.725C278.845 236.911 276.881 239.079 274.118 239.178C273.293 239.204 272.481 238.942 271.709 238.673C271.584 238.627 271.126 238.313 270.89 238.477C269.273 239.577 266.943 240.671 265.254 239.105C265.149 239.007 264.979 238.968 264.854 239.053C264.285 239.433 263.65 239.551 262.975 239.558C261.391 239.571 260.822 238.136 261.79 237.055C262.164 236.642 262.622 236.302 263.054 235.954C263.381 235.692 262.91 235.234 262.589 235.496Z" fill="black"/>
<path d="M423.009 161.03C425.961 162.151 429.005 163.284 431.807 164.751C434.348 166.088 436.488 168.151 438.596 170.071C440.822 172.102 442.158 174.355 442.773 177.316C443.258 179.662 443.434 182.007 444.41 184.221C445.195 186.003 446.596 187.497 448.2 188.564C449.261 189.272 450.518 189.691 451.637 190.3C452.822 190.942 453.883 191.735 454.97 192.528C457.32 194.231 459.447 196.209 460.56 198.954C461.732 201.837 459.919 204.09 457.575 205.551C457.215 205.774 457.549 206.344 457.902 206.115C459.605 205.047 461.078 203.697 461.523 201.666C461.961 199.681 460.776 197.428 459.585 195.928C457.902 193.799 455.69 192.135 453.444 190.635C450.675 188.787 447.644 188.053 445.68 185.164C443.965 182.636 443.88 179.511 443.277 176.609C442.727 173.949 441.366 171.859 439.447 169.986C437.372 167.955 435.114 166.003 432.639 164.476C429.791 162.721 426.295 161.581 423.172 160.395C422.786 160.244 422.616 160.88 423.009 161.03Z" fill="black"/>
</g>
</g>
<defs>
<clipPath id="clip0_56_86911">
<rect width="491" height="341" fill="white" transform="translate(0.5)"/>
</clipPath>
</defs>
</svg>
