<?xml version="1.0" encoding="utf-8" ?>
<svg xmlns="http://www.w3.org/2000/svg" xmlns:xlink="http://www.w3.org/1999/xlink" width="1432" height="467">
	<path d="M1095.09 290.477C1095.48 290.363 1095.87 290.268 1096.27 290.224C1100.18 289.804 1110.84 295.696 1113.83 298.35C1115 299.395 1115.87 300.784 1115.97 302.359C1116.23 306.749 1113.45 310.1 1111.15 313.594C1106.25 321.054 1101.11 328.109 1095.25 334.843L1092.25 337.744C1090.49 339.34 1088.5 340.773 1085.99 340.565C1084.69 340.458 1082.39 339.462 1081.58 338.46C1079.32 335.691 1079.93 330.175 1080.24 326.84C1081.16 316.811 1087.32 296.971 1095.09 290.477Z"/>
	<path fill="#007CFF" d="M116.058 467L116.025 455.024L511.135 455.002L511.077 467L116.058 467Z"/>
	<path fill="#007CFF" d="M90.0828 434.025L535.047 434.023L534.993 446.058L90.109 446.099L90.0828 434.025Z"/>
	<path d="M713.949 58.9926C717.984 58.7268 721.729 58.9247 725.739 59.4087C733.424 60.3364 742.044 64.0703 747.082 70.1079C749.557 73.074 751.349 76.7649 753.782 79.9002C755.769 82.4626 757.473 85.6004 757.714 88.8873C758.308 96.9604 753.971 104.554 749.939 111.234C743.899 121.239 736.342 131.08 731.728 141.839C729.985 145.901 729.501 150.3 728.936 154.645C727.885 155.319 727.691 155.579 726.404 155.345C719.871 154.153 715.232 150.993 711.455 145.457C709.756 142.967 709.5 139.87 709.79 136.94C710.974 124.981 722.454 113.836 729.718 104.902C732.904 100.984 736.546 96.7496 737.475 91.6119C738.293 87.0853 737.691 82.0213 734.992 78.1803C733.839 76.5382 732.291 75.2582 730.271 74.9317C721.229 73.4702 711.618 77.2095 704.496 82.5431C677.526 102.739 662.812 141.854 658.172 174.065C656.366 187.567 656.77 203.45 664.384 215.233C671.575 226.361 686.449 227.607 698.176 224.004C701.489 222.986 706.663 219.213 709.646 219.868L710.203 222.314C709.405 225.41 708.35 228.266 706.387 230.832C701.733 236.918 694.395 239.466 687.011 240.35C674.377 241.864 659.759 238.936 649.718 230.894C636.134 220.016 631.249 204.559 629.529 187.792C626.214 155.464 640.104 116.172 660.432 91.2254C674.465 74.0045 691.302 61.3135 713.949 58.9926Z"/>
	<path d="M814.611 279.99C815.171 279.758 815.681 279.637 816.286 279.594C823.595 279.073 835.049 286.502 840.419 291.073C837.82 297.327 837.062 304.287 835.886 310.919C830.336 342.223 829.047 373.208 830.105 404.93C845.286 368.767 865.686 333.237 887.471 300.668C891.345 294.876 895.256 287.905 900.132 282.954C901.999 281.058 904.098 279.569 906.809 279.553C913.929 279.511 923.94 285.58 928.824 290.454C922.154 298.423 918.672 307.698 915.304 317.422L906.09 347.779C899.159 373.556 893.074 399.655 888.762 426.003L886.048 445.754C885.638 449.821 886.048 455.227 884.528 458.96C882.519 460.119 881.492 460.047 879.226 459.696C874.22 458.921 867.421 455.434 864.52 451.098C858.945 442.764 873.725 370.275 876.687 356.412L883.49 328.352C880.427 331.163 877.664 337.872 875.567 341.603C862.635 364.619 851.707 388.488 841.473 412.802C836.782 423.948 832.906 436.076 827.525 446.854C825.483 446.672 823.989 446.18 822.631 444.565C820.95 442.566 818.883 439.774 818.07 437.27C816.713 433.091 816.6 427.659 816.221 423.281C813.574 392.655 818.503 361.616 821.365 331.139C809.796 362.127 801.491 394.248 794.377 426.512L790.632 446.369C790.119 450.033 790.553 456.803 788.237 459.659C787.255 459.867 786.228 460.019 785.223 459.968C780.149 459.713 775.14 456.814 771.739 453.17C768.516 449.717 768.234 449.122 768.416 444.4C769.476 416.979 795.481 297.73 814.611 279.99Z"/>
	<path d="M1036.84 279.99C1037.31 279.825 1037.77 279.729 1038.27 279.67C1044.39 278.934 1057.1 285.087 1061.84 288.867C1062.16 289.117 1063.23 289.831 1063.4 290.147C1063.5 290.345 1062.1 292.127 1061.56 292.866C1058.94 296.512 1056.9 300.223 1055.01 304.288C1049.22 316.755 1045.45 330.465 1041.74 343.674C1034.71 368.699 1028.95 394.248 1024.46 419.848C1023.17 427.199 1020.62 437.263 1021.45 444.629L1022.61 445.501L1023.18 445.28C1032.51 441.198 1048.28 409.866 1051.87 400.098C1053.69 395.145 1054.68 389.66 1056.12 384.556C1058.72 375.324 1061.7 366.21 1065.26 357.302C1066.74 353.612 1067.72 349.928 1071.55 348.282C1078.84 348.909 1086.01 353.324 1091.49 357.951C1083.57 375.876 1078.23 395.021 1073.48 413.988C1070.96 424.029 1068.07 434.66 1067.18 444.978L1068.76 445.882L1069.74 445.475C1072.1 444.35 1074.09 441.506 1075.75 439.541C1085.68 427.786 1094.54 411.51 1099.68 397.052C1103.15 387.285 1105.02 376.923 1108.57 367.094C1110.45 361.898 1113.37 350.634 1118.4 348.276C1125.86 348.779 1132.9 353.385 1138.57 357.959C1131.05 373.801 1125.42 391.866 1121.91 409.01C1127.12 397.602 1132.9 386.824 1139.46 376.131C1145.11 366.927 1151.21 357.819 1159.37 350.626C1161.21 349 1163.19 348.118 1165.71 348.309C1170.91 348.701 1179.56 352.328 1182.91 356.318C1185.51 359.417 1180.34 368.164 1179.09 371.598C1174.23 384.934 1170.6 398.478 1167.15 412.233C1164.17 424.15 1161.27 435.738 1160.18 448.003C1176.95 435.321 1186.84 412.029 1194.62 393.108C1196.93 387.484 1198.87 380.889 1201.85 375.637C1202.83 373.913 1203.68 373.775 1205.45 373.333C1207.37 374.009 1207.62 374.167 1208.86 375.767C1209 376.559 1209.11 377.451 1208.95 378.246C1208.05 382.616 1205.33 387.495 1203.66 391.681C1195.02 413.269 1182.66 443.421 1162.62 456.997C1157.57 460.423 1153.05 460.382 1147.24 459.266C1143.55 457.83 1140.02 455.18 1138.21 451.599C1132.63 440.572 1151.15 378.639 1155.77 364.75C1138.26 384.855 1126.3 411.275 1117.23 436.147C1115.87 439.859 1114.61 443.626 1113.7 447.476C1113 450.487 1112.73 457.629 1110.91 459.796C1110.03 459.936 1109.15 460.027 1108.26 459.989C1100.92 459.674 1095.84 454.537 1091.23 449.437L1093.41 427.859C1087.73 438.076 1080.79 448.246 1071.44 455.45C1067.29 458.656 1063.01 460.631 1057.65 459.859C1053.85 459.312 1050.3 456.647 1048.08 453.61C1042.75 446.304 1044.91 437.137 1046.24 428.857C1040.5 437.057 1035.96 445.569 1028.49 452.472C1023.46 457.112 1018.7 460.314 1011.64 459.983C1008.58 459.839 1005.25 458.581 1003.18 456.229C997.356 449.611 998.576 440.135 999.083 431.979C994.027 440.483 988.096 449.033 980.37 455.328C976.444 458.527 971.957 460.498 966.823 459.894C962.716 459.411 959.343 456.949 956.869 453.726C951.236 446.387 953.749 436.973 954.857 428.559C949.555 439.395 941.845 454.018 930.248 458.892C925.745 460.785 919.483 460.343 915.053 458.406C911.104 456.679 908.092 452.856 906.636 448.883C904.752 443.745 904.67 437.923 904.681 432.514C904.714 415.681 908.768 399.205 915.859 383.957C921.946 370.868 932.74 352.727 947.216 347.768C955.688 344.865 966.664 351.897 973.815 355.584L974.368 353.955C975.45 350.986 976.395 349.643 979.256 348.288C986.818 349.039 993.429 353.321 999.21 358.011C988.978 378.514 984.069 403.308 979.386 425.6C978.11 431.674 975.726 439.136 976.166 445.328L977.158 445.951C979.628 445.448 981.221 443.238 982.806 441.434C988.256 435.234 992.576 428.368 996.565 421.161C998.152 418.294 1000.15 415.219 1001.09 412.086C1003.5 404.087 1003.91 394.35 1005.45 386.023C1010.87 356.555 1016.77 325.389 1027.59 297.362C1029.82 291.587 1032.2 284.26 1036.84 279.99ZM962.692 360.07C954.884 361.755 950.63 366.733 946.463 373.206C936.329 388.945 930.147 410.63 928.438 429.142C928.111 432.689 927.424 436.903 928.234 440.382C928.763 442.653 929.192 443.767 931.01 445.25C932.509 445.13 933.963 445.156 935.205 444.207C940.125 440.928 943.788 433.678 946.388 428.506C953.26 414.833 958.377 400.261 963.116 385.726C965.459 378.542 967.295 370.725 970.451 363.882C969.648 362.291 968.841 361.278 967.02 360.691C965.689 360.263 964.085 360.192 962.692 360.07Z"/>
	<path d="M1172.92 59.7732L1174.33 59.5208C1176.3 59.3246 1178.59 60.2423 1180.48 60.8138C1187.14 62.8277 1193.31 65.3812 1198.66 69.9168C1198.47 71.7836 1196.32 73.9581 1195.31 75.5681C1190.5 83.266 1187.23 92.5127 1184.44 101.126C1175.3 129.331 1168.9 157.827 1162.75 186.784C1170.43 171.519 1177.82 155.161 1188.76 141.928C1192.28 137.666 1195.79 133.583 1200.46 130.519C1203.29 128.665 1206.3 127.156 1209.79 127.971C1214.27 129.018 1218.38 134.026 1220.72 137.714C1223.56 142.205 1225.13 146.864 1223.91 152.159C1222.81 156.931 1220.01 160.53 1217.01 164.283C1209.57 173.59 1201.12 180.581 1191.12 186.911C1191.77 197.447 1194.11 212.723 1199.66 221.761C1201.28 224.403 1202.57 225.339 1205.45 226.044C1211.07 224.923 1221.31 208.131 1223.18 202.766C1224.58 198.765 1223.91 192.473 1224.58 188.059C1226.91 172.593 1234.21 155.632 1244.04 143.441C1249.85 136.226 1258.73 128.269 1268.33 127.294C1275.45 126.57 1283.25 130.405 1288.64 134.848C1293.78 139.093 1299.79 145.683 1300.39 152.687C1301.17 161.76 1296.65 171.713 1290.86 178.429C1279.64 191.45 1265.31 198.874 1248.12 200.179L1248.84 210.036C1249.6 215.458 1251.29 220.772 1255.82 224.162C1259.24 226.718 1264.61 227.169 1268.73 226.484C1277.82 224.976 1286.19 215.081 1291.38 207.997C1299.53 196.87 1305.76 184.285 1311.08 171.602C1311.44 170.748 1313.11 167.44 1313.03 166.821C1312.86 165.473 1311.12 162.806 1310.56 161.421C1309.06 157.712 1308.12 154.193 1307.5 150.244L1310.01 148.459C1316.15 144.839 1323.01 141.993 1329.57 139.245C1340.22 134.79 1350.44 130.868 1362.01 129.688C1364.51 129.433 1368.14 128.865 1370.51 129.609C1373.4 130.519 1376.1 134.908 1377.46 137.399C1382.52 146.684 1382.48 154.819 1379.46 164.816C1373.26 185.29 1357.53 205.33 1338.59 215.534C1342.02 218.93 1345.13 222.236 1347.97 226.161C1363.13 215.468 1378.01 201.534 1388.69 186.332C1392.78 180.501 1396.63 174.304 1399.72 167.879C1401.48 164.214 1403.22 157.688 1405.62 154.623C1405.93 154.224 1407.13 153.682 1407.6 153.383C1409.76 153.68 1410.14 153.843 1411.85 155.201C1412.66 159.212 1409.53 164.512 1407.87 168.269C1398.83 188.789 1383.8 205.714 1367.13 220.423L1355.35 230.075C1354.67 230.601 1352.14 232.15 1351.8 232.801C1351.62 233.147 1353.24 237.007 1353.43 237.498C1357.25 247.45 1358.24 258.447 1356.2 268.936C1353.69 281.829 1346.93 293.178 1335.89 300.541C1328.14 305.71 1316.89 308.416 1307.65 306.45C1301.47 305.136 1297.08 301.782 1293.72 296.508C1290.36 291.247 1289.96 283.077 1291.32 277.131C1295.95 256.795 1316.98 246.272 1333.15 236.263C1331.8 230.405 1329.33 226.199 1325.88 221.321C1323.25 222.131 1320.44 222.696 1317.7 222.998C1313.92 223.416 1308.83 223.422 1305.79 220.828C1304.15 219.426 1303.58 217.752 1303.39 215.673C1304.97 208.733 1311.02 208.153 1316.94 208.286C1317.99 208.31 1320.33 208.689 1321.25 208.418C1324.33 207.52 1328.74 203.613 1331.32 201.464C1347.52 188.004 1357.58 168.23 1359.54 147.432C1347.46 151.407 1337.63 158.018 1327.39 165.379C1325.11 167.011 1321.35 169.119 1319.78 171.439C1318.39 173.472 1317.55 176.429 1316.57 178.694L1309.57 194.107C1301.53 209.963 1287.82 232.887 1269.98 238.624C1261.59 241.322 1249.29 240.212 1241.54 236.201C1232.81 231.681 1228.17 223.76 1225.3 214.732L1219.46 223.476C1215.16 229.514 1207.22 238.643 1199.59 239.817C1194.96 240.53 1190.42 239.249 1186.69 236.482C1174.76 227.627 1169.7 209.625 1167.71 195.6C1163.89 198.64 1157.87 221.125 1156.84 226.645C1156.1 230.554 1156.7 235.512 1154.96 239.059C1153.45 239.863 1152.84 239.967 1151.13 239.869C1144.31 239.476 1138.58 235.09 1134.21 230.21C1133.58 216.486 1135.49 202.552 1137.27 188.97C1134.49 191.622 1131.36 194.038 1127.79 195.543C1122.98 197.57 1117.51 196.639 1112.83 194.698C1107.16 192.35 1101.75 188.303 1099.37 182.495C1095.08 172.016 1103.07 155.056 1107.18 145.477C1093.74 160.408 1084.83 179.572 1076.52 197.675C1072.73 206.211 1069.33 215.035 1066.69 223.994C1065.4 228.366 1065.04 236.644 1062.46 239.842L1058.97 239.844C1052.46 239.364 1047.18 234.044 1043.17 229.431C1042.95 216.31 1046.11 202.824 1048.66 189.998C1043.95 195.271 1038.53 200.32 1032.87 204.564C1030.25 206.534 1026.97 208.186 1024.61 210.44C1022.41 212.554 1020.71 215.832 1018.88 218.335C1015.4 223.11 1010.96 227.736 1006.33 231.399C997.942 238.03 988.175 241.001 977.56 239.684C970.143 238.764 962.956 233.658 958.45 227.885C949.006 215.783 949.753 203.704 951.572 189.43L947.518 191.502C940.841 194.597 935.344 194.145 928.578 191.645C922.419 202.395 916.156 213.109 909.041 223.261C905.92 227.714 902.677 232.766 898.534 236.335C895.085 239.304 892.873 240.201 888.308 239.813C881.617 239.244 873.58 234.883 869.359 229.738C866.075 225.733 867.184 219.738 867.593 214.964C862.704 222.719 858.434 231.884 851.411 237.941C849.331 239.736 847.909 240.016 845.226 239.81C839.211 239.349 831.507 235.171 827.622 230.56C824.656 227.041 825.301 221.659 825.398 217.371L826.647 191.935C822.621 195.942 818.444 199.995 813.935 203.458C810.814 205.855 807.007 207.967 804.15 210.597C802.174 212.415 800.626 215.443 799.012 217.613C793.679 224.786 786.87 231.938 778.809 236.001C771.385 239.744 761.317 241.509 753.25 238.784C744.296 235.76 737.736 229.046 733.655 220.677C726.563 206.134 730.659 186.585 735.813 171.879C741.642 155.247 751.718 136.386 768.34 128.522C775.993 124.902 781.516 129.847 788.462 131.784C792.389 132.879 796.282 132.807 800.253 134.262C807.76 137.013 814.607 141.793 817.977 149.258C819.829 153.36 819.609 158.014 819.283 162.4C818.436 173.78 815.561 185.004 811.474 195.635C813.221 195.038 816.5 190.917 817.887 189.476C821.035 186.206 826.061 181.347 827.903 177.222C829.076 174.596 829.154 169.854 829.57 166.914L834.427 140.423C835.135 137.414 835.737 133.268 837.314 130.622C838.123 129.266 839.174 128.479 840.707 128.135C846.265 126.889 856.495 131.841 861.062 134.722L855.63 155.122C853.142 165.051 841.261 217.854 845.705 225.26C853.757 224.599 862.258 202.247 865.33 195.404C867.289 191.038 869.931 186.466 871.296 181.895C873.015 176.139 873.81 169.797 875.064 163.9L880.363 142.911C881.369 138.987 882.295 132.248 885.136 129.318C886.147 128.275 887.416 127.986 888.846 128.005C893.17 128.062 903.3 130.763 906.327 133.993C908.677 136.501 905.577 142.64 904.565 145.624C895.929 171.106 887.093 199.925 886.431 226.947C897.114 214.129 905.112 197.057 912.394 182.092C914.414 177.941 917.096 173.718 918.603 169.366C919.764 166.013 919.93 161.938 920.749 158.431C922.847 149.452 926.906 140.525 932.131 132.909C933.497 130.918 934.654 129.19 937.215 128.815C939.614 128.464 942.248 129.84 944.09 131.287C948.11 134.443 951.24 140.508 950.697 145.703C950.339 149.135 947.903 153.282 946.438 156.407L936.293 177.487C935.353 179.295 932.838 182.912 933.082 184.912C936.597 186.064 940.051 186.278 943.485 184.765C946.975 183.227 952.304 179.738 954.304 176.431C955.798 173.959 956.545 170.725 957.598 168.007C963.308 153.276 973.576 135.083 988.873 128.462C996.821 125.023 1001.46 129.871 1008.56 131.761C1013.08 132.964 1017.36 132.935 1021.94 134.74C1028.26 137.231 1035.32 142.192 1038.07 148.641C1043.45 161.225 1036.65 183.522 1031.78 195.892C1037.9 190.237 1043.46 184.17 1048.37 177.423C1050.05 175.118 1052.24 172.489 1053.35 169.869C1055.04 165.861 1055.92 161.21 1057.13 157.019C1058.65 151.788 1060.59 146.582 1062.51 141.485C1063.81 138.048 1065.34 132.793 1067.6 129.949C1068.58 128.71 1069.17 128.572 1070.72 128.454C1076.85 127.99 1085.63 133.957 1090.11 137.728C1090.45 139.856 1086.38 147.19 1085.39 149.877C1080.88 162.108 1076.69 174.929 1074.15 187.74L1084.26 168.122C1091.13 156.01 1098.38 143.411 1108.31 133.529C1110.07 131.774 1112.2 129.205 1114.66 128.601C1119.81 127.338 1127.51 131.047 1131.82 133.55C1134.49 135.101 1135.59 136.55 1136.38 139.471C1135.54 143.181 1129.69 146.858 1127.3 149.986C1121.62 157.413 1116.87 171.11 1118.2 180.501C1118.59 183.301 1119.74 184.334 1121.9 185.936C1125.11 186.179 1127.36 185.87 1130.07 183.977C1133.04 181.904 1137.92 177.635 1139.36 174.246C1140.47 171.618 1140.6 167.819 1141.1 164.988C1144.25 147.201 1160.14 68.6839 1172.92 59.7732ZM781.749 141.245C768.487 148.878 761.455 165.239 757.612 179.464C754.152 192.27 752.05 207.357 756.188 220.22L764.935 219.049C767.695 218.325 773.402 217.521 775.604 215.953C776.436 215.36 777.717 212.754 778.258 211.828C785.875 198.813 790.288 182.891 792.494 168.067C793.484 161.414 794.22 154.456 792.432 147.871C791.802 145.548 790.782 144.019 789.181 142.267C786.592 140.903 784.576 141.051 781.749 141.245ZM1002.18 141.236C989.02 148.693 982.025 164.981 978.142 178.97C974.452 192.259 972.76 206.531 976.489 219.972L985.328 219.061C990.424 217.684 995.234 217.678 998.044 212.848C1006.38 198.52 1011.75 180.767 1013.38 164.289C1013.91 158.947 1014.31 153.164 1012.84 147.919C1012.17 145.538 1010.9 143.07 1008.71 141.781C1006.91 140.719 1004.2 141.109 1002.18 141.236ZM1333.61 245.734C1322.41 253.014 1304.87 263.042 1301.94 277.205C1301.13 281.103 1300.82 285.251 1303.11 288.705L1305.27 291.549C1308.43 293.046 1311.04 294.138 1314.55 292.824C1321.91 290.064 1325.69 283.295 1328.67 276.43C1332.91 266.697 1334.16 256.929 1334.54 246.433L1333.61 245.734ZM1273.64 142.966C1262.55 149.279 1255.1 166.543 1251.83 178.516C1250.55 183.182 1249.36 188.235 1249.27 193.079C1250.82 193.829 1253.27 192.945 1254.9 192.598C1266.63 186.472 1274.53 176.202 1278.47 163.646C1280.22 158.071 1281.9 150.408 1280.08 144.764C1278.62 143.427 1277.57 142.424 1275.4 142.599C1274.81 142.646 1274.21 142.809 1273.64 142.966ZM1199.2 142.966C1187.13 153.138 1179.11 170.829 1172.52 184.912L1173.17 185.437L1173.87 184.912C1183.26 176.618 1191.79 167.877 1197.59 156.614C1199.35 153.181 1201.14 149.722 1201.37 145.806C1201.45 144.508 1201.39 143.947 1200.85 142.745L1199.2 142.966Z"/>
	<path fill="#FFC107" d="M69.7703 424.365C69.4481 424.28 69.163 424.174 68.8694 424.01C63.0626 420.772 47.6449 379.379 44.7813 370.561C22.5044 301.963 29.1396 223.751 61.8897 159.642C95.4973 93.855 153.853 42.4131 224.435 19.6456C297.253 -3.84331 375.069 3.34576 442.942 38.217C504.901 70.0494 556.483 130.268 577.756 196.716C596.077 253.947 597.349 315.517 578.535 372.873C573.148 389.295 566.054 404.67 558.169 420.012C557.342 422.133 556.756 423.609 554.83 424.987L193.503 425.105L100.701 425.098C95.7986 425.097 72.7778 426.229 69.7703 424.365Z"/>
	<path fill="#1A0F21" d="M541.981 202.39C543.933 202.093 545.878 202.112 547.766 202.763C549.755 203.449 551.485 205.356 552.278 207.271C553.072 209.189 553.025 210.631 552.25 212.501C551.151 215.155 548.933 216.425 546.439 217.486C544.677 217.858 543.882 218.187 542.151 217.593C539.248 216.595 537.245 215.251 535.854 212.41C535.67 210.551 535.262 208.13 536.223 206.444C537.524 204.161 539.52 203.032 541.981 202.39Z"/>
	<path fill="#1A0F21" d="M515.76 202.307L517.65 202.253C521.258 202.198 523.429 202.685 526.023 205.254C527.682 206.898 527.749 208.916 527.765 211.129C525.628 216.784 521.973 217.511 516.597 218.206C516.366 218.236 514.696 218.374 514.597 218.469C514.134 218.916 513.825 221.584 513.689 222.239C512.198 229.42 507.833 234.482 500.877 236.845C493.591 239.321 485.554 235.007 479.331 241.113C475.792 244.586 476.142 247.176 476.097 251.734C476.058 255.728 475.124 257.377 472.322 260.126C470.449 261.429 468.692 261.713 466.473 261.403C463.968 261.052 462.677 259.304 461.236 257.429C460.108 253.624 460.239 246.88 461.262 243.034C462.514 238.324 464.408 234.243 467.888 230.738C476.543 222.019 486.579 221.867 498.09 221.839C498.762 217.137 499.203 213.131 502.231 209.332C505.909 204.717 510.013 202.973 515.76 202.307Z"/>
	<path fill="#1A0F21" d="M218.804 287.47C225.362 286.969 231.546 287.578 237.433 290.757C243.187 293.865 247.375 299.087 249.18 305.324C250.758 310.779 249.941 315.645 247.14 320.64C243.144 327.766 235.692 331.296 228.146 333.354C220.757 333.925 214.112 333.26 207.734 329.265C202.764 326.153 198.469 321.213 197.17 315.385C195.913 309.744 196.664 304.357 199.792 299.437C204.229 292.459 210.947 289.18 218.804 287.47Z"/>
	<path fill="#FFC107" d="M220.401 303.021C223.293 302.977 226.643 302.709 229.302 304.033C231.052 304.905 233.082 306.269 233.692 308.206C234.363 310.34 234.188 311.673 233.112 313.616C231.708 316.151 228.463 317.187 225.86 317.936C222.309 317.989 217.995 318.001 215.194 315.479C212.683 313.219 212.201 312.37 212.065 309.003C214.212 305.563 216.468 303.964 220.401 303.021Z"/>
	<path fill="#1A0F21" d="M69.7703 424.365L69.4806 423.855L69.3265 423.552C68.4538 421.879 68.0558 420.442 67.9491 418.572C67.8242 416.381 68.2974 413.323 69.8845 411.696C74.2437 407.227 108.194 409.058 115.923 409.083L113.887 402.812C110.574 389.858 108.743 376.326 106.31 363.183L93.0569 293.17L86.0562 256.107C84.3572 247.65 81.7322 238.052 81.2593 229.512C81.0091 224.994 82.7948 218.816 85.0829 214.99C88.6013 209.106 94.1867 204.945 100.853 203.278C109.797 201.041 122.355 202.552 131.666 202.552L195.54 202.587L247.543 201.929L283.987 202.532C297.598 202.565 311.805 201.643 325.337 202.754C328.955 203.052 332.456 204.486 335.542 206.354C340.527 209.373 343.745 213.572 345.865 218.985C348.833 226.562 349.227 235.305 351.116 243.216L362.874 303.503L371.556 347.824L378.451 382.135C385.816 382.026 396.539 380.626 403.241 383.748C405.421 384.763 406.589 388.763 407.429 390.873C406.466 393.356 405.616 396.078 403.573 397.892C401.653 399.596 397.35 399.19 394.913 399.268C387.795 399.494 380.68 399.967 373.56 399.611C369.552 399.411 365.374 399.704 363.244 395.492C361.168 391.387 361.063 384.139 360.241 379.426L354.497 348.852L349.009 324.642L339.8 277.631L332.686 241.332C331.852 237.189 331.494 232.814 330.446 228.745C329.876 226.53 329.004 224.462 327.419 222.773C325.471 220.696 323.514 219.858 320.675 219.773L275.644 219.688L189.749 219.689L135.954 219.665C126.771 219.663 117.163 219.1 108.021 219.865C105.479 220.078 103.921 220.656 102.059 222.422C100.332 224.061 99.0703 225.936 99.0444 228.401C98.9992 232.701 100.423 237.505 101.148 241.767L108.764 282.094L123.208 358.791C125.515 370.977 127.113 383.84 130.28 395.785C131.081 398.808 132.855 401.977 135.06 404.199C136.395 405.544 140.348 408.662 142.067 409.009C147.063 410.016 154.492 409.046 159.82 409.056L214.725 409.001L418.445 409.102C416.894 399.952 416.34 390.774 415.298 381.569L409.478 329.068C408.472 320.055 408.276 310.126 405.984 301.414C408.387 294.866 411.755 288.719 414.829 282.471C416.177 279.733 417.843 275.17 420.328 273.389C421.335 272.667 422.476 272.172 423.719 272.072C438.638 270.866 454.681 271.948 469.733 271.978C478.94 271.996 490.13 270.821 499.167 272.293C500.914 272.578 502.723 273.23 503.75 274.747C506.562 278.905 508.211 284.349 510.352 288.915C511.675 291.735 514.239 295.694 514.619 298.747C515.777 308.043 513.206 319.214 512.155 328.477L507.057 374.719C505.786 386.134 505.304 397.76 503.111 409.042L534.956 408.995C540.106 409.005 547.567 408.072 552.329 410.089L552.732 410.261C553.317 410.504 553.899 410.718 554.423 411.082C557.415 413.157 557.669 416.711 558.169 420.012C557.342 422.133 556.756 423.609 554.83 424.987L193.503 425.105L100.701 425.098C95.7986 425.097 72.7778 426.229 69.7703 424.365Z"/>
	<path fill="#FFC107" d="M431.331 289.079C436.169 287.647 443.946 288.674 449.069 288.669L490.502 288.867C491.72 290.449 492.066 290.916 492.322 292.895L490.502 293.551L443.642 293.527C440.256 293.536 431.894 294.496 429.533 292.776C429.516 291.257 430.468 290.239 431.331 289.079Z"/>
	<path fill="#FFC107" d="M484.445 341.824C487.715 341.556 489.597 342.125 492.498 343.609C492.778 344.15 493.031 344.738 493.053 345.356C493.152 348.208 490.805 373.117 489.453 374.628C486.065 375.863 483.424 374.703 480.173 373.586C475.647 371.364 472.038 367.102 470.27 362.411C469.381 360.053 469.414 356.434 470.449 354.127C473.751 346.772 477.051 344.667 484.445 341.824Z"/>
	<path fill="#FFC107" d="M495.836 310.052L496.778 310.437C497.72 312.673 495.737 322.646 495.594 325.956L491.616 325.445C481.713 324.167 472.636 326.13 464.661 332.348C457.758 337.729 453.855 346.136 452.867 354.715C451.828 363.746 454.509 373.025 460.202 380.085C467.537 389.183 477.049 391.223 488.015 392.415C487.697 398.093 487.235 403.485 486.002 409.047L463.232 409.007L435.028 408.994L424.78 310.173L495.836 310.052Z"/>
</svg>
