<svg width="24" height="32" viewBox="0 0 24 32" fill="none" xmlns="http://www.w3.org/2000/svg">
<g clip-path="url(#clip0_56_92127)">
<path d="M11.5609 0C13.5274 0 15.4133 0.781183 16.8038 2.1717C18.1943 3.56221 18.9755 5.44815 18.9755 7.41463V19.5122H4.14624V7.41463C4.14624 5.44815 4.92742 3.56221 6.31794 2.1717C7.70845 0.781183 9.59439 0 11.5609 0Z" fill="#717075"/>
<path d="M13.1219 1.56104C11.1554 1.56104 9.26949 2.34222 7.87897 3.73273C6.48846 5.12325 5.70728 7.00919 5.70728 8.97567V19.5123H18.9756V7.41469C18.9758 5.83027 18.4655 4.28794 17.5203 3.01633C16.2487 2.07113 14.7063 1.56082 13.1219 1.56104Z" fill="#5A5A60"/>
<path d="M13.9024 14.8293H9.21949C7.5635 14.8293 5.97534 15.4872 4.80438 16.6581C3.63342 17.8291 2.97559 19.4173 2.97559 21.0732H20.1463C20.1463 19.4173 19.4885 17.8291 18.3175 16.6581C17.1466 15.4872 15.5584 14.8293 13.9024 14.8293Z" fill="#FAC515"/>
<path d="M15.4634 16.3901H10.7805C9.39717 16.391 8.05337 16.8514 6.96021 17.6991C5.86705 18.5467 5.0865 19.7336 4.74121 21.0731H20.1463C20.1474 19.7987 19.7564 18.5548 19.0262 17.5102C17.9817 16.7801 16.7378 16.3891 15.4634 16.3901Z" fill="#EAAA08"/>
<path d="M13.9023 4.68286L13.2665 5.47763C12.5174 6.41404 11.5252 7.12642 10.3985 7.53687C9.27172 7.94731 8.05381 8.04 6.87793 7.80481V10.1463C6.87793 11.3883 7.37131 12.5794 8.24953 13.4576C9.12775 14.3358 10.3189 14.8292 11.5609 14.8292C12.8028 14.8292 13.994 14.3358 14.8722 13.4576C15.7504 12.5794 16.2438 11.3883 16.2438 10.1463V7.02432L13.9023 4.68286Z" fill="#EFC599"/>
<path d="M20.1463 32H2.97554L1.63388 21.2668C1.60643 21.0472 1.62599 20.8242 1.69128 20.6127C1.75657 20.4012 1.86609 20.2061 2.01258 20.0401C2.15906 19.8742 2.33916 19.7413 2.54092 19.6503C2.74269 19.5593 2.9615 19.5122 3.18284 19.5122H19.939C20.1603 19.5122 20.3791 19.5593 20.5809 19.6503C20.7827 19.7413 20.9628 19.8742 21.1092 20.0401C21.2557 20.2061 21.3652 20.4012 21.4305 20.6127C21.4958 20.8242 21.5154 21.0472 21.4879 21.2668L20.1463 32Z" fill="#528BFF"/>
<path d="M21.4876 21.2668C21.4927 21.2024 21.4938 21.1378 21.4907 21.0732H4.7433C4.52197 21.0732 4.30318 21.1203 4.10143 21.2113C3.89968 21.3024 3.7196 21.4352 3.57312 21.6012C3.42665 21.7671 3.31713 21.9623 3.25184 22.1737C3.18655 22.3852 3.16698 22.6082 3.19442 22.8278L4.34111 32.0001H20.146L21.4876 21.2668Z" fill="#2970FF"/>
<path d="M11.5609 28.0975C12.8541 28.0975 13.9024 27.0492 13.9024 25.756C13.9024 24.4629 12.8541 23.4146 11.5609 23.4146C10.2678 23.4146 9.21948 24.4629 9.21948 25.756C9.21948 27.0492 10.2678 28.0975 11.5609 28.0975Z" fill="#528BFF"/>
<path d="M11.5609 22.634C10.9435 22.634 10.3399 22.8171 9.82645 23.1602C9.31305 23.5032 8.9129 23.9908 8.67661 24.5613C8.44032 25.1317 8.37849 25.7594 8.49895 26.365C8.61941 26.9706 8.91675 27.5269 9.35336 27.9635C9.78998 28.4001 10.3463 28.6975 10.9519 28.8179C11.5575 28.9384 12.1852 28.8766 12.7556 28.6403C13.3261 28.404 13.8137 28.0039 14.1567 27.4904C14.4998 26.977 14.6829 26.3734 14.6829 25.756C14.6819 24.9283 14.3527 24.1347 13.7674 23.5495C13.1822 22.9642 12.3886 22.635 11.5609 22.634ZM11.5609 27.317C11.2522 27.317 10.9504 27.2254 10.6937 27.0539C10.437 26.8824 10.2369 26.6386 10.1188 26.3533C10.0006 26.0681 9.96971 25.7543 10.0299 25.4515C10.0902 25.1487 10.2388 24.8705 10.4571 24.6522C10.6754 24.4339 10.9536 24.2852 11.2564 24.225C11.5592 24.1648 11.873 24.1957 12.1583 24.3138C12.4435 24.432 12.6873 24.6321 12.8588 24.8888C13.0303 25.1455 13.1219 25.4473 13.1219 25.756C13.1215 26.1699 12.9569 26.5667 12.6642 26.8593C12.3716 27.152 11.9748 27.3165 11.5609 27.317Z" fill="black"/>
</g>
<path d="M23.3657 31H0.634033V33H23.3657V31Z" fill="black" mask="url(#path-1-inside-1_56_92127)"/>
<defs>
<clipPath id="clip0_56_92127">
<path d="M0.634033 0H23.3657V32H0.634033V0Z" fill="white"/>
</clipPath>
</defs>
</svg>
