<svg width="40" height="41" viewBox="0 0 40 41" fill="none" xmlns="http://www.w3.org/2000/svg">
<g id="smart-city">
<g id="Group">
<g id="Group_2">
<path id="Vector" d="M28.2743 38.8389H11.7258V13.6255C11.7258 13.194 12.0756 12.8442 12.5071 12.8442H27.493C27.9245 12.8442 28.2743 13.194 28.2743 13.6255V38.8389Z" fill="#2970FF"/>
<path id="Vector_2" d="M21.793 38.8389H18.2068V35.6826C18.2068 35.2511 18.5566 34.9014 18.988 34.9014H21.0117C21.4432 34.9014 21.793 35.2511 21.793 35.6826V38.8389Z" fill="#CA8504"/>
<path id="Vector_3" d="M23.4271 21.8683H16.5728C16.1413 21.8683 15.7915 21.5185 15.7915 21.0871V18.313C15.7915 17.8815 16.1413 17.5317 16.5728 17.5317H23.4271C23.8586 17.5317 24.2084 17.8815 24.2084 18.313V21.0871C24.2084 21.5185 23.8586 21.8683 23.4271 21.8683Z" fill="white"/>
<path id="Vector_4" d="M23.4271 30.8922H16.5728C16.1413 30.8922 15.7915 30.5425 15.7915 30.111V27.3369C15.7915 26.9054 16.1413 26.5557 16.5728 26.5557H23.4271C23.8586 26.5557 24.2084 26.9054 24.2084 27.3369V30.111C24.2084 30.5425 23.8586 30.8922 23.4271 30.8922Z" fill="white"/>
<path id="Vector_5" d="M38.377 38.839H28.2742V25.1453L38.5578 27.4076C38.9438 27.4925 39.2187 27.8345 39.2187 28.2296V37.9974C39.2187 38.4621 38.8418 38.839 38.377 38.839Z" fill="#2970FF"/>
<path id="Vector_6" d="M32.9299 34.4171H34.7342C35.1657 34.4171 35.5155 34.0673 35.5155 33.6358V31.8315C35.5155 31.4001 35.1657 31.0503 34.7342 31.0503H32.9299C32.4984 31.0503 32.1487 31.4001 32.1487 31.8315V33.6358C32.1487 34.0673 32.4984 34.4171 32.9299 34.4171Z" fill="#EAAA08"/>
<path id="Vector_7" d="M1.62297 38.8389H11.7258V19.7H1.5625C1.13102 19.7 0.78125 20.0497 0.78125 20.4812V37.9972C0.78125 38.462 1.15813 38.8389 1.62297 38.8389Z" fill="#EAAA08"/>
<path id="Vector_8" d="M7.07009 34.4171H5.26587C4.83438 34.4171 4.48462 34.0673 4.48462 33.6358V31.8315C4.48462 31.4001 4.83438 31.0503 5.26587 31.0503H7.07017C7.50165 31.0503 7.85142 31.4001 7.85142 31.8315V33.6358C7.85134 34.0673 7.50157 34.4171 7.07009 34.4171Z" fill="white"/>
<path id="Vector_9" d="M7.07009 27.525H5.26587C4.83438 27.525 4.48462 27.1752 4.48462 26.7438V24.9395C4.48462 24.508 4.83438 24.1582 5.26587 24.1582H7.07017C7.50165 24.1582 7.85142 24.508 7.85142 24.9395V26.7438C7.85134 27.1752 7.50157 27.525 7.07009 27.525Z" fill="white"/>
<path id="Vector_10" d="M8.33 19.7H3.82812V17.2976C3.82812 16.8661 4.17789 16.5164 4.60938 16.5164H7.54875C7.98023 16.5164 8.33 16.8661 8.33 17.2976V19.7Z" fill="#CA8504"/>
</g>
<g id="Group_3">
<path id="Vector_11" d="M28.2743 23.253V38.8389H11.7258V13.6255C11.7258 13.194 12.0756 12.8442 12.5071 12.8442H27.493C27.9245 12.8442 28.2743 13.194 28.2743 13.6255V16.1342" stroke="black" stroke-miterlimit="10" stroke-linecap="round" stroke-linejoin="round"/>
<path id="Vector_12" d="M21.793 38.8389H18.2068V35.6826C18.2068 35.2511 18.5566 34.9014 18.988 34.9014H21.0117C21.4432 34.9014 21.793 35.2511 21.793 35.6826V38.8389Z" stroke="black" stroke-miterlimit="10" stroke-linecap="round" stroke-linejoin="round"/>
<path id="Vector_13" d="M23.4271 21.8683H16.5728C16.1413 21.8683 15.7915 21.5185 15.7915 21.0871V18.313C15.7915 17.8815 16.1413 17.5317 16.5728 17.5317H23.4271C23.8586 17.5317 24.2084 17.8815 24.2084 18.313V21.0871C24.2084 21.5185 23.8586 21.8683 23.4271 21.8683Z" stroke="black" stroke-miterlimit="10" stroke-linecap="round" stroke-linejoin="round"/>
<path id="Vector_14" d="M23.4271 30.8922H16.5728C16.1413 30.8922 15.7915 30.5425 15.7915 30.111V27.3369C15.7915 26.9054 16.1413 26.5557 16.5728 26.5557H23.4271C23.8586 26.5557 24.2084 26.9054 24.2084 27.3369V30.111C24.2084 30.5425 23.8586 30.8922 23.4271 30.8922Z" stroke="black" stroke-miterlimit="10" stroke-linecap="round" stroke-linejoin="round"/>
<path id="Vector_15" d="M1.62297 38.8389H11.7258V19.7H1.5625C1.13102 19.7 0.78125 20.0497 0.78125 20.4812V37.9972C0.78125 38.462 1.15813 38.8389 1.62297 38.8389Z" stroke="black" stroke-miterlimit="10" stroke-linecap="round" stroke-linejoin="round"/>
<path id="Vector_16" d="M20 21.8683V17.5317" stroke="black" stroke-miterlimit="10" stroke-linecap="round" stroke-linejoin="round"/>
<path id="Vector_17" d="M20 30.8922V26.5557" stroke="black" stroke-miterlimit="10" stroke-linecap="round" stroke-linejoin="round"/>
<path id="Vector_18" d="M7.07009 34.4171H5.26587C4.83438 34.4171 4.48462 34.0673 4.48462 33.6358V31.8315C4.48462 31.4001 4.83438 31.0503 5.26587 31.0503H7.07017C7.50165 31.0503 7.85142 31.4001 7.85142 31.8315V33.6358C7.85134 34.0673 7.50157 34.4171 7.07009 34.4171Z" stroke="black" stroke-miterlimit="10" stroke-linecap="round" stroke-linejoin="round"/>
<path id="Vector_19" d="M7.07009 27.525H5.26587C4.83438 27.525 4.48462 27.1752 4.48462 26.7438V24.9395C4.48462 24.508 4.83438 24.1582 5.26587 24.1582H7.07017C7.50165 24.1582 7.85142 24.508 7.85142 24.9395V26.7438C7.85134 27.1752 7.50157 27.525 7.07009 27.525Z" stroke="black" stroke-miterlimit="10" stroke-linecap="round" stroke-linejoin="round"/>
<path id="Vector_20" d="M38.377 38.839H28.2742V25.1453L38.5578 27.4076C38.9438 27.4925 39.2187 27.8345 39.2187 28.2296V37.9974C39.2187 38.4621 38.8418 38.839 38.377 38.839Z" stroke="black" stroke-miterlimit="10" stroke-linecap="round" stroke-linejoin="round"/>
<path id="Vector_21" d="M32.9299 34.4171H34.7342C35.1657 34.4171 35.5155 34.0673 35.5155 33.6358V31.8315C35.5155 31.4001 35.1657 31.0503 34.7342 31.0503H32.9299C32.4984 31.0503 32.1487 31.4001 32.1487 31.8315V33.6358C32.1487 34.0673 32.4984 34.4171 32.9299 34.4171Z" stroke="black" stroke-miterlimit="10" stroke-linecap="round" stroke-linejoin="round"/>
<path id="Vector_22" d="M25.7355 4.55789C22.5397 1.36219 17.3397 1.36219 14.1438 4.55805" stroke="black" stroke-miterlimit="10" stroke-linecap="round" stroke-linejoin="round"/>
<path id="Vector_23" d="M23.5454 7.05719C21.5572 5.06914 18.3223 5.06914 16.3342 7.05727" stroke="black" stroke-miterlimit="10" stroke-linecap="round" stroke-linejoin="round"/>
<path id="Vector_24" d="M21.7426 9.92178C20.7485 8.92771 19.131 8.92779 18.137 9.92186" stroke="black" stroke-miterlimit="10" stroke-linecap="round" stroke-linejoin="round"/>
<path id="Vector_25" d="M8.33 19.7H3.82812V17.2976C3.82812 16.8661 4.17789 16.5164 4.60938 16.5164H7.54875C7.98023 16.5164 8.33 16.8661 8.33 17.2976V19.7Z" stroke="black" stroke-miterlimit="10" stroke-linecap="round" stroke-linejoin="round"/>
</g>
</g>
</g>
</svg>
